<svg id="Layer_1" data-name="Layer 1" xmlns="http://www.w3.org/2000/svg" viewBox="0 0 800 1000"><defs>  <pattern id="textura-1" patternUnits="userSpaceOnUse" width="100%" height="100%">
      <image href="http://innovateordie.com.ar/svg/texturas/01.jpg" x="-10%" y="0" width="100%" height="100%"></image>
  </pattern>
  <pattern id="textura-2" patternUnits="userSpaceOnUse" width="100%" height="100%">
      <image href="http://innovateordie.com.ar/svg/texturas/02.jpg" x="-10%" y="0" width="100%" height="100%"></image>
  </pattern>
  <pattern id="textura-3" patternUnits="userSpaceOnUse" width="100%" height="100%">
      <image href="http://innovateordie.com.ar/svg/texturas/03.jpg" x="-10%" y="0" width="100%" height="100%"></image>
  </pattern>
  <pattern id="textura-4" patternUnits="userSpaceOnUse" width="100%" height="100%">
      <image href="http://innovateordie.com.ar/svg/texturas/04.jpg" x="-10%" y="0" width="100%" height="100%"></image>
  </pattern>
  <pattern id="textura-5" patternUnits="userSpaceOnUse" width="100%" height="100%">
      <image href="http://innovateordie.com.ar/svg/texturas/05.jpg" x="-10%" y="0" width="100%" height="100%"></image>
  </pattern>
  <pattern id="textura-6" patternUnits="userSpaceOnUse" width="100%" height="100%">
      <image href="http://innovateordie.com.ar/svg/texturas/06.jpg" x="-10%" y="0" width="100%" height="100%"></image>
  </pattern>
  <pattern id="textura-7" patternUnits="userSpaceOnUse" width="100%" height="100%">
      <image href="http://innovateordie.com.ar/svg/texturas/07.jpg" x="-10%" y="0" width="100%" height="100%"></image>
  </pattern>
  <pattern id="textura-8" patternUnits="userSpaceOnUse" width="100%" height="100%">
      <image href="http://innovateordie.com.ar/svg/texturas/08.jpg" x="-10%" y="0" width="100%" height="100%"></image>
  </pattern>
  <pattern id="textura-9" patternUnits="userSpaceOnUse" width="100%" height="100%">
      <image href="http://innovateordie.com.ar/svg/texturas/09.jpg" x="-10%" y="0" width="100%" height="100%"></image>
  </pattern>
  <pattern id="textura-10" patternUnits="userSpaceOnUse" width="100%" height="100%">
      <image href="http://innovateordie.com.ar/svg/texturas/10.jpg" x="-10%" y="0" width="100%" height="100%"></image>
  </pattern>
  <pattern id="textura-11" patternUnits="userSpaceOnUse" width="100%" height="100%">
      <image href="http://innovateordie.com.ar/svg/texturas/11.jpg" x="-10%" y="0" width="100%" height="100%"></image>
  </pattern>
  <pattern id="textura-12" patternUnits="userSpaceOnUse" width="100%" height="100%">
      <image href="http://innovateordie.com.ar/svg/texturas/12.jpg" x="-10%" y="0" width="100%" height="100%"></image>
  </pattern>
  <pattern id="textura-13" patternUnits="userSpaceOnUse" width="100%" height="100%">
      <image href="http://innovateordie.com.ar/svg/texturas/13.jpg" x="-10%" y="0" width="100%" height="100%"></image>
  </pattern>
  <pattern id="textura-14" patternUnits="userSpaceOnUse" width="100%" height="100%">
      <image href="http://innovateordie.com.ar/svg/texturas/14.jpg" x="-10%" y="0" width="100%" height="100%"></image>
  </pattern>
  <pattern id="textura-15" patternUnits="userSpaceOnUse" width="100%" height="100%">
      <image href="http://innovateordie.com.ar/svg/texturas/15.jpg" x="-10%" y="0" width="100%" height="100%"></image>
  </pattern>
  <pattern id="textura-15" patternUnits="userSpaceOnUse" width="100%" height="100%">
      <image href="http://innovateordie.com.ar/svg/texturas/15.jpg" x="-10%" y="0" width="100%" height="100%"></image>
  </pattern>
  <pattern id="textura-16" patternUnits="userSpaceOnUse" width="100%" height="100%">
      <image href="http://innovateordie.com.ar/svg/texturas/16.jpg" x="-10%" y="0" width="100%" height="100%"></image>
  </pattern>
  <pattern id="textura-17" patternUnits="userSpaceOnUse" width="100%" height="100%">
      <image href="http://innovateordie.com.ar/svg/texturas/17.jpg" x="-10%" y="0" width="100%" height="100%"></image>
  </pattern>
  <pattern id="textura-18" patternUnits="userSpaceOnUse" width="100%" height="100%">
      <image href="http://innovateordie.com.ar/svg/texturas/18.jpg" x="-10%" y="0" width="100%" height="100%"></image>
  </pattern>
  <pattern id="textura-19" patternUnits="userSpaceOnUse" width="100%" height="100%">
      <image href="http://innovateordie.com.ar/svg/texturas/19.jpg" x="-10%" y="0" width="100%" height="100%"></image>
  </pattern>
  <pattern id="textura-20" patternUnits="userSpaceOnUse" width="100%" height="100%">
      <image href="http://innovateordie.com.ar/svg/texturas/20.jpg" x="-10%" y="0" width="100%" height="100%"></image>
  </pattern>
  <pattern id="textura-21" patternUnits="userSpaceOnUse" width="100%" height="100%">
      <image href="http://innovateordie.com.ar/svg/texturas/21.jpg" x="-10%" y="0" width="100%" height="100%"></image>
  </pattern>
  <pattern id="textura-22" patternUnits="userSpaceOnUse" width="100%" height="100%">
      <image href="http://innovateordie.com.ar/svg/texturas/22.jpg" x="-10%" y="0" width="100%" height="100%"></image>
  </pattern>
  <pattern id="textura-23" patternUnits="userSpaceOnUse" width="100%" height="100%">
      <image href="http://innovateordie.com.ar/svg/texturas/23.jpg" x="-10%" y="0" width="100%" height="100%"></image>
  </pattern>
  <pattern id="textura-24" patternUnits="userSpaceOnUse" width="100%" height="100%">
      <image href="http://innovateordie.com.ar/svg/texturas/24.jpg" x="-10%" y="0" width="100%" height="100%"></image>
  </pattern>
  <pattern id="textura-25" patternUnits="userSpaceOnUse" width="100%" height="100%">
      <image href="http://innovateordie.com.ar/svg/texturas/25.jpg" x="-10%" y="0" width="100%" height="100%"></image>
  </pattern>
  <pattern id="textura-26" patternUnits="userSpaceOnUse" width="100%" height="100%">
      <image href="http://innovateordie.com.ar/svg/texturas/26.jpg" x="-10%" y="0" width="100%" height="100%"></image>
  </pattern>
  <pattern id="textura-27" patternUnits="userSpaceOnUse" width="100%" height="100%">
      <image href="http://innovateordie.com.ar/svg/texturas/27.jpg" x="-10%" y="0" width="100%" height="100%"></image>
  </pattern>
  <pattern id="textura-28" patternUnits="userSpaceOnUse" width="100%" height="100%">
      <image href="http://innovateordie.com.ar/svg/texturas/28.jpg" x="-10%" y="0" width="100%" height="100%"></image>
  </pattern>
  <pattern id="textura-29" patternUnits="userSpaceOnUse" width="100%" height="100%">
      <image href="http://innovateordie.com.ar/svg/texturas/29.jpg" x="-10%" y="0" width="100%" height="100%"></image>
  </pattern>
  <pattern id="textura-30" patternUnits="userSpaceOnUse" width="100%" height="100%">
      <image href="http://innovateordie.com.ar/svg/texturas/30.jpg" x="-10%" y="0" width="100%" height="100%"></image>
  </pattern>
  <pattern id="textura-31" patternUnits="userSpaceOnUse" width="100%" height="100%">
      <image href="http://innovateordie.com.ar/svg/texturas/31.jpg" x="-10%" y="0" width="100%" height="100%"></image>
  </pattern>
  <pattern id="textura-32" patternUnits="userSpaceOnUse" width="100%" height="100%">
      <image href="http://innovateordie.com.ar/svg/texturas/32.jpg" x="-10%" y="0" width="100%" height="100%"></image>
  </pattern>
  <pattern id="textura-33" patternUnits="userSpaceOnUse" width="100%" height="100%">
      <image href="http://innovateordie.com.ar/svg/texturas/33.jpg" x="-10%" y="0" width="100%" height="100%"></image>
  </pattern>
  <pattern id="textura-34" patternUnits="userSpaceOnUse" width="100%" height="100%">
      <image href="http://innovateordie.com.ar/svg/texturas/34.jpg" x="-10%" y="0" width="100%" height="100%"></image>
  </pattern>
  <pattern id="textura-35" patternUnits="userSpaceOnUse" width="100%" height="100%">
      <image href="http://innovateordie.com.ar/svg/texturas/35.jpg" x="-10%" y="0" width="100%" height="100%"></image>
  </pattern><style>.cls-1,.cls-2{fill:none;stroke:#000;stroke-miterlimit:10;}.cls-2{stroke-dasharray:3 3;}</style></defs><title>Artboard 2 copy</title><path class="cls-1 frente-izquierdo" d="M402.5,267.79c-84-1.37-190.29-76.86-219.79-98.12C150.48,182.36,144,217,143.06,228c-1.95,23.41,50.16,175.56,51.22,188,2,23.78,6.84,264.36,7.06,462.56,24.21-5.21,54.16-7.14,201.16-9.84Z"/><line class="cls-1" x1="399.5" y1="268" x2="399.5" y2="270"/><line class="cls-2" x1="399.5" y1="273" x2="399.5" y2="867"/><line class="cls-1" x1="399.5" y1="868" x2="399.5" y2="869"/><path class="cls-1 frente-derecho" d="M406.5,267.79c84-1.37,190.25-76.86,219.74-98.12C658.48,182.36,665,217,665.88,228c2,23.41-50.17,175.56-51.23,188-2,23.78-6.8,264.36-7,462.56-24.21-5.21-54.12-7.14-201.12-9.84Z"/><line class="cls-1" x1="409.5" y1="268" x2="409.5" y2="270"/><line class="cls-2" x1="409.5" y1="273" x2="409.5" y2="867"/><line class="cls-1" x1="409.5" y1="868" x2="409.5" y2="869"/><path class="cls-1 manga-izquierda" d="M137.36,244.45s49.26,150.43,52,181.85c3,54.7,9.94,294.2-15.21,453.2H83.63C53.46,647.5,104.67,273.6,137.36,244.45Z"/><polygon class="cls-1 punos" points="83.64 882.5 174.16 882.5 161.13 956.5 94.26 956.5 83.64 882.5"/><path class="cls-1 capucha" d="M404.07,262.88c-55.89,0-177.78-147.11-167.72-192.83-19.55,3.43-53.51,72.63-55,80C176.73,172,335.15,262.88,404.07,262.88Z"/><path class="cls-1 manga-derecha" d="M670.79,244.45s-49.27,150.43-52,181.85C617.5,482,608.83,720.5,634,879.5h90.53C754.69,647.5,703.48,273.6,670.79,244.45Z"/><polygon class="cls-1 punos" points="724.51 882.5 633.98 882.5 647.01 956.5 713.89 956.5 724.51 882.5"/><path class="cls-1 cintura" d="M402.2,922.46c150.86,1,170.31,1.67,194.75,3.57l8.45-43.41c-24.43-5.25-46.35-7.18-197.21-9.92-150.86,2.74-181,4.67-205.45,9.92L211.2,926C235.64,924.13,251.34,923.45,402.2,922.46Z"/><path class="cls-1 capucha" d="M404.07,262.88c55.9,0,177.79-147.11,167.73-192.83,19.54,3.43,53.51,72.63,55,80C631.42,172,473,262.88,404.07,262.88Z"/><path class="cls-1 capucha" d="M404.07,260.25c53.11-3.66,170.9-140.52,164.21-190.2-1.83-13.59-71.46-13.72-164.21-13.72S241.83,56.46,240,70.05C233.32,119.73,353.21,260.25,404.07,260.25Z"/><path class="cls-1 bolsillo" d="M399.5,692.38c-24,.23-86.71,1.09-94.15.86-3.72-.12-5.36.8-6,3.19-14.73,56.17-51.1,95.22-58.49,101.51-.91.77-2.28,3.2-1.75,6.59,2.13,13.63,8.07,44,8.07,44H399.5Z"/><path class="cls-1 bolsillo" d="M409.5,692.38c23,.23,86.67,1.09,94.11.86,3.71-.12,5.33.8,6,3.19,14.72,56.17,51.08,95.22,58.47,101.51.91.77,2.28,3.2,1.75,6.59-2.14,13.63-8.08,44-8.08,44H409.5Z"/></svg>
