<svg id="Layer_1" data-name="Layer 1" xmlns="http://www.w3.org/2000/svg" viewBox="0 0 800 1000"><defs><style>.cls-1{fill:none;stroke:#000;stroke-miterlimit:10;}</style></defs><title>Artboard 2</title><path class="cls-1 manga-izquierda" d="M131.21,244.45s49.26,150.43,52,181.85c3,54.7,9.94,294.2-15.21,453.2H77.48C47.31,647.5,98.52,273.6,131.21,244.45Z"/><polygon class="cls-1 punos" points="77.48 882.5 168.01 882.5 154.98 956.5 88.11 956.5 77.48 882.5"/><path class="cls-1 capucha" d="M397.92,262.88C342,262.88,220.14,115.77,230.2,70.05c-19.55,3.43-53.51,72.63-55,80C170.58,172,329,262.88,397.92,262.88Z"/><path class="cls-1 manga-derecha" d="M664.63,244.45s-49.26,150.43-52,181.85c-1.28,55.66-10,294.2,15.2,453.2h90.53C748.54,647.5,697.33,273.6,664.63,244.45Z"/><polygon class="cls-1 punos" points="718.36 882.5 627.83 882.5 640.86 956.5 707.74 956.5 718.36 882.5"/><path class="cls-1 frente" d="M402.45,868.58c151.23,2.74,172.34,4.67,196.8,9.92.23-198.2,5.07-438.77,7.09-462.55,1.06-12.43,53.16-164.57,51.21-188-.92-11-7.43-45.76-39.66-58.45-29.49,21.27-135.73,97-220,98h-.16c-84.24-1-190.31-76.71-219.8-98-32.24,12.69-38.75,47.38-39.67,58.36-1.95,23.4,50.15,175.59,51.21,188,2,23.78,6.86,264.38,7.09,462.58C221.05,873.22,251.23,871.32,402.45,868.58Z"/><path class="cls-1 cintura" d="M396.05,922.46c150.86,1,170.31,1.67,194.74,3.57l8.46-43.41c-24.43-5.25-46.35-7.18-197.21-9.92-150.86,2.74-181,4.67-205.45,9.92L205.05,926C229.49,924.13,245.19,923.45,396.05,922.46Z"/><path class="cls-1 capucha" d="M397.92,262.88c55.9,0,177.79-147.11,167.73-192.83,19.54,3.43,53.51,72.63,55,80C625.27,172,466.85,262.88,397.92,262.88Z"/><path class="cls-1 capucha" d="M397.92,260.25c53.11-3.66,170.9-140.52,164.21-190.2-1.83-13.59-71.46-13.72-164.21-13.72s-162.24.13-164.07,13.72C227.17,119.73,347.06,260.25,397.92,260.25Z"/><path class="cls-1 bolsillo" d="M403.94,848.5H567.21s5.93-30.34,8.06-44c.53-3.39-.86-5.7-1.77-6.47-7.39-6.28-43.8-45.39-58.52-101.56-.63-2.4-2.35-3.35-6.06-3.23-8.57.27-92.87-.93-102.24-.93s-98.76,1.18-107.33.91c-3.72-.12-5.43.79-6.06,3.19-14.72,56.17-51.13,95.21-58.52,101.5a7.48,7.48,0,0,0-1.77,6.59c2.13,13.63,8.05,44,8.05,44Z"/></svg>
