<svg id="Layer_1" data-name="Layer 1" xmlns="http://www.w3.org/2000/svg" viewBox="0 0 800 1000"><defs><style>.cls-1{fill:none;stroke:#000;stroke-miterlimit:10;}</style></defs><title>Artboard 9</title><path class="cls-1" d="M408.59,234.5c84.24-2,99.88-88,105.5-88,32,0,81.3,5.71,109.47,10.85,26.79,4.89,48.27,42.35,49.18,53.33,2,23.4-50.15,175.61-51.2,188-2,23.77-6.86,264.51-7.09,462.71-24.46-5.26-54.64-7.91-205.86-9.91h.83c-151.23,2-181.4,4.55-205.87,9.81-.22-198.21-5.06-438.84-7.08-462.62-1.06-12.43-53.16-164.6-51.21-188,.91-11,16.69-48.66,49.18-53.46,45.89-5.85,77.47-10.74,109.47-10.74,5.62,0,21.26,86,105.51,88Z"/><path class="cls-1" d="M138.17,227.29s49.27,150.5,52,181.93c5.49,56.12,9.95,294.28-15.2,453.28H84.45C54.27,630.5,105.48,256.44,138.17,227.29Z"/><polygon class="cls-1" points="84.45 865.5 174.98 865.5 161.95 940.5 95.07 940.5 84.45 865.5"/><path class="cls-1" d="M679.83,227.29s-49.27,150.5-52,181.93c-5.49,56.12-9.94,294.28,15.2,453.28h90.53C763.73,630.5,712.52,256.44,679.83,227.29Z"/><polygon class="cls-1" points="733.55 865.5 643.02 865.5 656.05 940.5 722.93 940.5 733.55 865.5"/><path class="cls-1" d="M308.86,146.92c5.35,0,20.22,82.07,100.14,83.64,79.93-1.57,94.8-83.64,100.14-83.64,0,0-14.35-1.5-17,3.86-10.3,20.76-28.3,65.49-83.14,66.71-54.84-1.22-74.54-45.19-83.13-66.71C323.73,145.42,308.86,146.92,308.86,146.92Z"/><path class="cls-1" d="M614.45,865.38c-24.44-5.25-54.59-7.26-205.45-10-150.86,2.74-181,4.67-205.45,9.92L212,908.71c24.44-1.9,46.13-2.6,197-3.59,150.86,1,167.68.86,192.12,2.76Z"/><path class="cls-1" d="M241.16,786.1c7.39-6.28,55.89-61.72,67.55-117.85.13-.63-3.76-.52-5.14-.56-3.71-.12-5.43.79-6.06,3.19-14.72,56.17-51.13,95.22-58.52,101.5-.91.78-2.31,3-1.77,6.35C237.5,780.53,240.86,786.35,241.16,786.1Z"/><path class="cls-1" d="M569.38,786.1c-7.39-6.28-55.89-61.72-67.55-117.85-.13-.63,3.76-.52,5.14-.56,3.72-.12,5.43.79,6.06,3.19,14.72,56.17,51.13,95.22,58.52,101.5.91.78,2.31,3,1.78,6.35C573,780.53,569.68,786.35,569.38,786.1Z"/></svg>