<?xml version="1.0" encoding="utf-8"?>
<!-- Generator: Adobe Illustrator 23.0.1, SVG Export Plug-In . SVG Version: 6.00 Build 0)  -->
<svg version="1.1" id="Layer_1" xmlns="http://www.w3.org/2000/svg" xmlns:xlink="http://www.w3.org/1999/xlink" x="0px" y="0px"
	 viewBox="0 0 800 1000" style="enable-background:new 0 0 800 1000;" xml:space="preserve">
<defs>
  <pattern id="textura-1" patternUnits="userSpaceOnUse" width="100%" height="100%">
        <image href="http://innovateordie.com.ar/svg/texturas/01.jpg" x="-5%" y="-5%" width="105%" height="105%"></image>
    </pattern>
    <pattern id="textura-2" patternUnits="userSpaceOnUse" width="100%" height="100%">
        <image href="http://innovateordie.com.ar/svg/texturas/02.jpg" x="-5%" y="-5%" width="105%" height="105%"></image>
    </pattern>
    <pattern id="textura-3" patternUnits="userSpaceOnUse" width="100%" height="100%">
        <image href="http://innovateordie.com.ar/svg/texturas/03.jpg" x="-5%" y="-5%" width="105%" height="105%"></image>
    </pattern>
    <pattern id="textura-4" patternUnits="userSpaceOnUse" width="100%" height="100%">
        <image href="http://innovateordie.com.ar/svg/texturas/04.jpg" x="-5%" y="-5%" width="105%" height="105%"></image>
    </pattern>
    <pattern id="textura-5" patternUnits="userSpaceOnUse" width="100%" height="100%">
        <image href="http://innovateordie.com.ar/svg/texturas/05.jpg" x="-5%" y="-5%" width="105%" height="105%"></image>
    </pattern>
    <pattern id="textura-6" patternUnits="userSpaceOnUse" width="100%" height="100%">
        <image href="http://innovateordie.com.ar/svg/texturas/06.jpg" x="-5%" y="-5%" width="105%" height="105%"></image>
    </pattern>
    <pattern id="textura-7" patternUnits="userSpaceOnUse" width="100%" height="100%">
        <image href="http://innovateordie.com.ar/svg/texturas/07.jpg" x="-5%" y="-5%" width="105%" height="105%"></image>
    </pattern>
    <pattern id="textura-8" patternUnits="userSpaceOnUse" width="100%" height="100%">
        <image href="http://innovateordie.com.ar/svg/texturas/08.jpg" x="-5%" y="-5%" width="105%" height="105%"></image>
    </pattern>
    <pattern id="textura-9" patternUnits="userSpaceOnUse" width="100%" height="100%">
        <image href="http://innovateordie.com.ar/svg/texturas/09.jpg" x="-5%" y="-5%" width="105%" height="105%"></image>
    </pattern>
    <pattern id="textura-10" patternUnits="userSpaceOnUse" width="100%" height="100%">
        <image href="http://innovateordie.com.ar/svg/texturas/10.jpg" x="-5%" y="-5%" width="105%" height="105%"></image>
    </pattern>
    <pattern id="textura-11" patternUnits="userSpaceOnUse" width="100%" height="100%">
        <image href="http://innovateordie.com.ar/svg/texturas/11.jpg" x="-5%" y="-5%" width="105%" height="105%"></image>
    </pattern>
    <pattern id="textura-12" patternUnits="userSpaceOnUse" width="100%" height="100%">
        <image href="http://innovateordie.com.ar/svg/texturas/12.jpg" x="-5%" y="-5%" width="105%" height="105%"></image>
    </pattern>
    <pattern id="textura-13" patternUnits="userSpaceOnUse" width="100%" height="100%">
        <image href="http://innovateordie.com.ar/svg/texturas/13.jpg" x="-5%" y="-5%" width="105%" height="105%"></image>
    </pattern>
    <pattern id="textura-14" patternUnits="userSpaceOnUse" width="100%" height="100%">
        <image href="http://innovateordie.com.ar/svg/texturas/14.jpg" x="-5%" y="-5%" width="105%" height="105%"></image>
    </pattern>
    <pattern id="textura-15" patternUnits="userSpaceOnUse" width="100%" height="100%">
        <image href="http://innovateordie.com.ar/svg/texturas/15.jpg" x="-5%" y="-5%" width="105%" height="105%"></image>
    </pattern>
    <pattern id="textura-16" patternUnits="userSpaceOnUse" width="100%" height="100%">
        <image href="http://innovateordie.com.ar/svg/texturas/16.jpg" x="-5%" y="-5%" width="105%" height="105%"></image>
    </pattern>
    <pattern id="textura-17" patternUnits="userSpaceOnUse" width="100%" height="100%">
        <image href="http://innovateordie.com.ar/svg/texturas/17.jpg" x="-5%" y="-5%" width="105%" height="105%"></image>
    </pattern>
    <pattern id="textura-18" patternUnits="userSpaceOnUse" width="100%" height="100%">
        <image href="http://innovateordie.com.ar/svg/texturas/18.jpg" x="-5%" y="-5%" width="105%" height="105%"></image>
    </pattern>
    <pattern id="textura-19" patternUnits="userSpaceOnUse" width="100%" height="100%">
        <image href="http://innovateordie.com.ar/svg/texturas/19.jpg" x="-5%" y="-5%" width="105%" height="105%"></image>
    </pattern>
    <pattern id="textura-20" patternUnits="userSpaceOnUse" width="100%" height="100%">
        <image href="http://innovateordie.com.ar/svg/texturas/20.jpg" x="-5%" y="-5%" width="105%" height="105%"></image>
    </pattern>
    <pattern id="textura-21" patternUnits="userSpaceOnUse" width="100%" height="100%">
        <image href="http://innovateordie.com.ar/svg/texturas/21.jpg" x="-5%" y="-5%" width="105%" height="105%"></image>
    </pattern>
    <pattern id="textura-22" patternUnits="userSpaceOnUse" width="100%" height="100%">
        <image href="http://innovateordie.com.ar/svg/texturas/22.jpg" x="-5%" y="-5%" width="105%" height="105%"></image>
    </pattern>
    <pattern id="textura-23" patternUnits="userSpaceOnUse" width="100%" height="100%">
        <image href="http://innovateordie.com.ar/svg/texturas/23.jpg" x="-5%" y="-5%" width="105%" height="105%"></image>
    </pattern>
    <pattern id="textura-24" patternUnits="userSpaceOnUse" width="100%" height="100%">
        <image href="http://innovateordie.com.ar/svg/texturas/24.jpg" x="-5%" y="-5%" width="105%" height="105%"></image>
    </pattern>
    <pattern id="textura-25" patternUnits="userSpaceOnUse" width="100%" height="100%">
        <image href="http://innovateordie.com.ar/svg/texturas/25.jpg" x="-5%" y="-5%" width="105%" height="105%"></image>
    </pattern>
    <pattern id="textura-26" patternUnits="userSpaceOnUse" width="100%" height="100%">
        <image href="http://innovateordie.com.ar/svg/texturas/26.jpg" x="-5%" y="-5%" width="105%" height="105%"></image>
    </pattern>
    <pattern id="textura-27" patternUnits="userSpaceOnUse" width="100%" height="100%">
        <image href="http://innovateordie.com.ar/svg/texturas/27.jpg" x="-5%" y="-5%" width="105%" height="105%"></image>
    </pattern>
    <pattern id="textura-28" patternUnits="userSpaceOnUse" width="100%" height="100%">
        <image href="http://innovateordie.com.ar/svg/texturas/28.jpg" x="-5%" y="-5%" width="105%" height="105%"></image>
    </pattern>
    <pattern id="textura-29" patternUnits="userSpaceOnUse" width="100%" height="100%">
        <image href="http://innovateordie.com.ar/svg/texturas/29.jpg" x="-5%" y="-5%" width="105%" height="105%"></image>
    </pattern>
    <pattern id="textura-30" patternUnits="userSpaceOnUse" width="100%" height="100%">
        <image href="http://innovateordie.com.ar/svg/texturas/30.jpg" x="-5%" y="-5%" width="105%" height="105%"></image>
    </pattern>
    <pattern id="textura-31" patternUnits="userSpaceOnUse" width="100%" height="100%">
        <image href="http://innovateordie.com.ar/svg/texturas/31.jpg" x="-5%" y="-5%" width="105%" height="105%"></image>
    </pattern>
    <pattern id="textura-32" patternUnits="userSpaceOnUse" width="100%" height="100%">
        <image href="http://innovateordie.com.ar/svg/texturas/32.jpg" x="-5%" y="-5%" width="105%" height="105%"></image>
    </pattern>
    <pattern id="textura-33" patternUnits="userSpaceOnUse" width="100%" height="100%">
        <image href="http://innovateordie.com.ar/svg/texturas/33.jpg" x="-5%" y="-5%" width="105%" height="105%"></image>
    </pattern>
    <pattern id="textura-34" patternUnits="userSpaceOnUse" width="100%" height="100%">
        <image href="http://innovateordie.com.ar/svg/texturas/34.jpg" x="-5%" y="-5%" width="105%" height="105%"></image>
    </pattern>
    <pattern id="textura-35" patternUnits="userSpaceOnUse" width="100%" height="100%">
        <image href="http://innovateordie.com.ar/svg/texturas/35.jpg" x="-5%" y="-5%" width="105%" height="105%"></image>
    </pattern>
	<style type="text/css">
		.st0{fill:none;stroke:#000000;stroke-miterlimit:10;}
	</style>
</defs>
<title>Artboard 9</title>
<polygon class="st0 punos" points="733.5,865.5 643,865.5 656,940.5 722.9,940.5 "/>
<path class="st0 cuello" d="M308.9,146.9c5.4,0,20.2,82.1,100.1,83.6c79.9-1.6,94.8-83.6,100.1-83.6c0,0-14.4-1.5-17,3.9
	c-10.3,20.8-28.3,65.5-83.1,66.7c-54.8-1.2-74.5-45.2-83.1-66.7C323.7,145.4,308.9,146.9,308.9,146.9z"/>
<path class="st0 cintura" d="M614.5,865.4c-24.4-5.2-54.6-7.3-205.5-10c-150.9,2.7-181,4.7-205.4,9.9l8.4,43.4c24.4-1.9,46.1-2.6,197-3.6
	c150.9,1,167.7,0.9,192.1,2.8L614.5,865.4z"/>
<path class="st0 borde" d="M241.2,786.1c7.4-6.3,55.9-61.7,67.6-117.8c0.1-0.6-3.8-0.5-5.1-0.6c-3.7-0.1-5.4,0.8-6.1,3.2
	c-14.7,56.2-51.1,95.2-58.5,101.5c-0.9,0.8-2.3,3-1.8,6.3C237.5,780.5,240.9,786.3,241.2,786.1z"/>
<path class="st0 borde" d="M569.4,786.1c-7.4-6.3-55.9-61.7-67.5-117.8c-0.1-0.6,3.8-0.5,5.1-0.6c3.7-0.1,5.4,0.8,6.1,3.2
	c14.7,56.2,51.1,95.2,58.5,101.5c0.9,0.8,2.3,3,1.8,6.3C573,780.5,569.7,786.3,569.4,786.1z"/>
<g>
	<polygon class="st0 punos" points="84.4,865.5 175,865.5 161.9,940.5 95.1,940.5 	"/>
	<path class="st0 manga-izquierda" d="M343.9,209L190.2,409.2c5.5,56.1,9.9,294.3-15.2,453.3H84.4c-30.2-232,41.5-634.3,55.5-653.7
		c0,0,22-46.8,54.5-51.6c45.9-5.9,77.5-10.7,109.5-10.7C307.6,146.5,315.3,183,343.9,209z"/>
</g>
<path class="st0 frente" d="M408.3,851.5c151.2,2,180.4,4.5,204.9,9.8c0.2-198.2,5.1-429.8,7.1-453.6L469.9,211.9
	c-14.7,11.8-35.4,22-61.7,22.6l0,0c-26.3-0.6-46.6-10.8-61.3-22.6L196.5,407.7c2,23.8,6.9,255.4,7.1,453.6
	C228,856,257.1,853.5,408.3,851.5z"/>
<g>
	<polygon class="st0 punos" points="721.6,940.5 654.8,940.5 641.7,865.5 732.3,865.5 	"/>
	<path class="st0 manga-derecha" d="M472.8,209l153.7,200.2c-5.5,56.1-10,294.3,15.2,453.3h90.5c30.2-232-41.5-634.3-55.5-653.7
		c0,0-22-46.8-54.5-51.6c-45.9-5.9-77.5-10.7-109.5-10.7C509.1,146.5,501.4,183,472.8,209z"/>
</g>
</svg>
