<svg id="Layer_1" data-name="Layer 1" xmlns="http://www.w3.org/2000/svg" viewBox="0 0 800 1000"><defs><style>.cls-1{fill:none;stroke:#000;stroke-miterlimit:10;}</style></defs><title>Artboard 2 copy 3</title><path class="cls-1 frente" d="M408.59,215.5c84.24-1,99.88-87.7,105.5-87.7,32,0,81.3,5.87,109.47,11,26.79,4.89,48.27,42.43,49.18,53.4,2,23.41-50.15,175.66-51.2,188.1-2,23.77-6.86,264.19-7.09,462.4-24.46-5.26-54.64-7.22-205.86-10.22h.83c-151.23,3-181.4,4.88-205.87,10.14-.22-198.21-5.06-438.68-7.08-462.45-1.06-12.43-53.16-164.52-51.21-187.93.91-11,16.69-48.62,49.18-53.43,45.89-5.85,77.47-11,109.47-11,5.62,0,21.26,86.71,105.51,87.71Z"/><path class="cls-1 bolsillo" d="M408.8,810.5H572.08S578,780.65,580.14,767c.53-3.39-.86-5.45-1.77-6.22-7.39-6.29-43.8-45.28-58.53-101.45-.62-2.4-2.34-3.28-6.05-3.17-8.57.28-92.87-.9-102.24-.9s-98.76,1.2-107.34.93c-3.71-.12-5.42.8-6,3.2-14.73,56.16-51.13,95.21-58.53,101.5-.91.77-2.3,2.72-1.77,6.11,2.14,13.63,8.06,43.49,8.06,43.49Z"/><path class="cls-1 manga-izquierda" d="M138.17,208.62s49.27,150.34,52,181.77c5.49,56.12,9.95,294.11-15.2,453.11H84.45C54.27,612.5,105.48,237.77,138.17,208.62Z"/><polygon class="punos cls-1" points="84.45 847.5 174.98 847.5 161.95 921.5 95.07 921.5 84.45 847.5"/><path class="cls-1 manga-derecha" d="M679.83,208.62s-49.27,150.34-52,181.77c-5.49,56.12-9.94,294.11,15.2,453.11h90.53C763.73,612.5,712.52,237.77,679.83,208.62Z"/><polygon class="cls-1 punos" points="733.55 847.5 643.02 847.5 656.05 921.5 722.93 921.5 733.55 847.5"/><path class="cls-1 cuello" d="M308.86,128.58c5.35,0,20.22,82.06,100.14,83.64,79.93-1.58,94.8-83.64,100.14-83.64,0,0-14.35-1.5-17,3.86-10.3,20.76-28.3,65.49-83.14,66.71-54.84-1.22-74.54-45.2-83.13-66.71C323.73,127.08,308.86,128.58,308.86,128.58Z"/><path class="cintura cls-1" d="M614.45,847C590,841.79,559.86,839.77,409,837c-150.86,2.73-181,4.67-205.45,9.92L212,890.37c24.44-1.9,46.13-2.6,197-3.59,150.86,1,167.68.86,192.12,2.76Z"/></svg>
