<svg id="Layer_1" data-name="Layer 1" xmlns="http://www.w3.org/2000/svg" viewBox="0 0 800 1000"><defs>
  <pattern id="textura-1" patternUnits="userSpaceOnUse" width="100%" height="100%">
      <image href="http://innovateordie.com.ar/svg/texturas/01.jpg" x="-10%" y="0" width="100%" height="100%"></image>
  </pattern>
  <pattern id="textura-2" patternUnits="userSpaceOnUse" width="100%" height="100%">
      <image href="http://innovateordie.com.ar/svg/texturas/02.jpg" x="-10%" y="0" width="100%" height="100%"></image>
  </pattern>
  <pattern id="textura-3" patternUnits="userSpaceOnUse" width="100%" height="100%">
      <image href="http://innovateordie.com.ar/svg/texturas/03.jpg" x="-10%" y="0" width="100%" height="100%"></image>
  </pattern>
  <pattern id="textura-4" patternUnits="userSpaceOnUse" width="100%" height="100%">
      <image href="http://innovateordie.com.ar/svg/texturas/04.jpg" x="-10%" y="0" width="100%" height="100%"></image>
  </pattern>
  <pattern id="textura-5" patternUnits="userSpaceOnUse" width="100%" height="100%">
      <image href="http://innovateordie.com.ar/svg/texturas/05.jpg" x="-10%" y="0" width="100%" height="100%"></image>
  </pattern>
  <pattern id="textura-6" patternUnits="userSpaceOnUse" width="100%" height="100%">
      <image href="http://innovateordie.com.ar/svg/texturas/06.jpg" x="-10%" y="0" width="100%" height="100%"></image>
  </pattern>
  <pattern id="textura-7" patternUnits="userSpaceOnUse" width="100%" height="100%">
      <image href="http://innovateordie.com.ar/svg/texturas/07.jpg" x="-10%" y="0" width="100%" height="100%"></image>
  </pattern>
  <pattern id="textura-8" patternUnits="userSpaceOnUse" width="100%" height="100%">
      <image href="http://innovateordie.com.ar/svg/texturas/08.jpg" x="-10%" y="0" width="100%" height="100%"></image>
  </pattern>
  <pattern id="textura-9" patternUnits="userSpaceOnUse" width="100%" height="100%">
      <image href="http://innovateordie.com.ar/svg/texturas/09.jpg" x="-10%" y="0" width="100%" height="100%"></image>
  </pattern>
  <pattern id="textura-10" patternUnits="userSpaceOnUse" width="100%" height="100%">
      <image href="http://innovateordie.com.ar/svg/texturas/10.jpg" x="-10%" y="0" width="100%" height="100%"></image>
  </pattern>
  <pattern id="textura-11" patternUnits="userSpaceOnUse" width="100%" height="100%">
      <image href="http://innovateordie.com.ar/svg/texturas/11.jpg" x="-10%" y="0" width="100%" height="100%"></image>
  </pattern>
  <pattern id="textura-12" patternUnits="userSpaceOnUse" width="100%" height="100%">
      <image href="http://innovateordie.com.ar/svg/texturas/12.jpg" x="-10%" y="0" width="100%" height="100%"></image>
  </pattern>
  <pattern id="textura-13" patternUnits="userSpaceOnUse" width="100%" height="100%">
      <image href="http://innovateordie.com.ar/svg/texturas/13.jpg" x="-10%" y="0" width="100%" height="100%"></image>
  </pattern>
  <pattern id="textura-14" patternUnits="userSpaceOnUse" width="100%" height="100%">
      <image href="http://innovateordie.com.ar/svg/texturas/14.jpg" x="-10%" y="0" width="100%" height="100%"></image>
  </pattern>
  <pattern id="textura-15" patternUnits="userSpaceOnUse" width="100%" height="100%">
      <image href="http://innovateordie.com.ar/svg/texturas/15.jpg" x="-10%" y="0" width="100%" height="100%"></image>
  </pattern>
  <pattern id="textura-15" patternUnits="userSpaceOnUse" width="100%" height="100%">
      <image href="http://innovateordie.com.ar/svg/texturas/15.jpg" x="-10%" y="0" width="100%" height="100%"></image>
  </pattern>
  <pattern id="textura-16" patternUnits="userSpaceOnUse" width="100%" height="100%">
      <image href="http://innovateordie.com.ar/svg/texturas/16.jpg" x="-10%" y="0" width="100%" height="100%"></image>
  </pattern>
  <pattern id="textura-17" patternUnits="userSpaceOnUse" width="100%" height="100%">
      <image href="http://innovateordie.com.ar/svg/texturas/17.jpg" x="-10%" y="0" width="100%" height="100%"></image>
  </pattern>
  <pattern id="textura-18" patternUnits="userSpaceOnUse" width="100%" height="100%">
      <image href="http://innovateordie.com.ar/svg/texturas/18.jpg" x="-10%" y="0" width="100%" height="100%"></image>
  </pattern>
  <pattern id="textura-19" patternUnits="userSpaceOnUse" width="100%" height="100%">
      <image href="http://innovateordie.com.ar/svg/texturas/19.jpg" x="-10%" y="0" width="100%" height="100%"></image>
  </pattern>
  <pattern id="textura-20" patternUnits="userSpaceOnUse" width="100%" height="100%">
      <image href="http://innovateordie.com.ar/svg/texturas/20.jpg" x="-10%" y="0" width="100%" height="100%"></image>
  </pattern>
  <pattern id="textura-21" patternUnits="userSpaceOnUse" width="100%" height="100%">
      <image href="http://innovateordie.com.ar/svg/texturas/21.jpg" x="-10%" y="0" width="100%" height="100%"></image>
  </pattern>
  <pattern id="textura-22" patternUnits="userSpaceOnUse" width="100%" height="100%">
      <image href="http://innovateordie.com.ar/svg/texturas/22.jpg" x="-10%" y="0" width="100%" height="100%"></image>
  </pattern>
  <pattern id="textura-23" patternUnits="userSpaceOnUse" width="100%" height="100%">
      <image href="http://innovateordie.com.ar/svg/texturas/23.jpg" x="-10%" y="0" width="100%" height="100%"></image>
  </pattern>
  <pattern id="textura-24" patternUnits="userSpaceOnUse" width="100%" height="100%">
      <image href="http://innovateordie.com.ar/svg/texturas/24.jpg" x="-10%" y="0" width="100%" height="100%"></image>
  </pattern>
  <pattern id="textura-25" patternUnits="userSpaceOnUse" width="100%" height="100%">
      <image href="http://innovateordie.com.ar/svg/texturas/25.jpg" x="-10%" y="0" width="100%" height="100%"></image>
  </pattern>
  <pattern id="textura-26" patternUnits="userSpaceOnUse" width="100%" height="100%">
      <image href="http://innovateordie.com.ar/svg/texturas/26.jpg" x="-10%" y="0" width="100%" height="100%"></image>
  </pattern>
  <pattern id="textura-27" patternUnits="userSpaceOnUse" width="100%" height="100%">
      <image href="http://innovateordie.com.ar/svg/texturas/27.jpg" x="-10%" y="0" width="100%" height="100%"></image>
  </pattern>
  <pattern id="textura-28" patternUnits="userSpaceOnUse" width="100%" height="100%">
      <image href="http://innovateordie.com.ar/svg/texturas/28.jpg" x="-10%" y="0" width="100%" height="100%"></image>
  </pattern>
  <pattern id="textura-29" patternUnits="userSpaceOnUse" width="100%" height="100%">
      <image href="http://innovateordie.com.ar/svg/texturas/29.jpg" x="-10%" y="0" width="100%" height="100%"></image>
  </pattern>
  <pattern id="textura-30" patternUnits="userSpaceOnUse" width="100%" height="100%">
      <image href="http://innovateordie.com.ar/svg/texturas/30.jpg" x="-10%" y="0" width="100%" height="100%"></image>
  </pattern>
  <pattern id="textura-31" patternUnits="userSpaceOnUse" width="100%" height="100%">
      <image href="http://innovateordie.com.ar/svg/texturas/31.jpg" x="-10%" y="0" width="100%" height="100%"></image>
  </pattern>
  <pattern id="textura-32" patternUnits="userSpaceOnUse" width="100%" height="100%">
      <image href="http://innovateordie.com.ar/svg/texturas/32.jpg" x="-10%" y="0" width="100%" height="100%"></image>
  </pattern>
  <pattern id="textura-33" patternUnits="userSpaceOnUse" width="100%" height="100%">
      <image href="http://innovateordie.com.ar/svg/texturas/33.jpg" x="-10%" y="0" width="100%" height="100%"></image>
  </pattern>
  <pattern id="textura-34" patternUnits="userSpaceOnUse" width="100%" height="100%">
      <image href="http://innovateordie.com.ar/svg/texturas/34.jpg" x="-10%" y="0" width="100%" height="100%"></image>
  </pattern>
  <pattern id="textura-35" patternUnits="userSpaceOnUse" width="100%" height="100%">
      <image href="http://innovateordie.com.ar/svg/texturas/35.jpg" x="-10%" y="0" width="100%" height="100%"></image>
  </pattern>
  <style>.cls-1{fill:none;stroke:#000;stroke-miterlimit:10;}</style></defs><title>Artboard 2 copy 4</title><path class="cls-1 manga-izquierda" d="M131.21,262.62s49.26,150.34,52,181.77c3,54.69,9.94,294.11-15.21,453.11H77.48C47.31,666.5,98.52,291.77,131.21,262.62Z"/><polygon class="punos cls-1" points="77.48 900.5 168.01 900.5 154.98 974.5 88.11 974.5 77.48 900.5"/><path class="cls-1 capucha" d="M397.92,281.22C342,281.22,220.14,134.11,230.2,88.39c-19.55,3.43-53.51,72.63-55,80C170.58,190.35,329,281.22,397.92,281.22Z"/><path class="cls-1 manga-derecha" d="M664.63,262.62s-49.26,150.34-52,181.77c-1.28,55.66-10,294.11,15.2,453.11h90.53C748.54,666.5,697.33,291.77,664.63,262.62Z"/><polygon class="punos cls-1" points="718.36 900.5 627.83 900.5 640.86 974.5 707.74 974.5 718.36 900.5"/><path class="cls-1 frente" d="M402.45,886.92c151.23,2.74,172.34,4.67,196.8,9.93.23-198.21,5.07-438.78,7.09-462.55,1.06-12.44,53.16-164.58,51.21-188-.92-11-7.43-45.44-39.66-58.12-29.49,21.26-135.73,96.3-220,98.3h-.16c-84.24-2-190.31-77-219.8-98.3-32.24,12.68-38.75,47.21-39.67,58.18-1.95,23.41,50.15,175.51,51.21,188,2,23.77,6.86,264.33,7.09,462.53C221.05,891.6,251.23,889.66,402.45,886.92Z"/><path class="cintura cls-1" d="M396.05,940.8c150.86,1,170.31,1.67,194.74,3.58L599.25,901C574.82,895.71,552.9,893.78,402,891c-150.86,2.74-181,4.67-205.45,9.92l8.46,43.42C229.49,942.47,245.19,941.79,396.05,940.8Z"/><path class="cls-1" d="M397.92,281.22c55.9,0,177.79-147.11,167.73-192.83,19.54,3.43,53.51,72.63,55,80C625.27,190.35,466.85,281.22,397.92,281.22Z"/><path class="cls-1 capucha" d="M397.92,278.59c53.11-3.66,170.9-140.52,164.21-190.2C560.3,74.8,490.67,74.67,397.92,74.67s-162.24.13-164.07,13.72C227.17,138.07,347.06,278.59,397.92,278.59Z"/><path class="cls-1 borde" d="M230.08,821.76c7.39-6.28,55.89-61.72,67.55-117.84.14-.64-3.76-.53-5.14-.57-3.71-.12-5.43.8-6.06,3.2-14.72,56.16-51.13,95.21-58.52,101.5-.91.77-2.3,3-1.77,6.34C226.42,816.19,229.78,822,230.08,821.76Z"/><path class="cls-1 borde" d="M558.3,821.76c-7.39-6.28-55.89-61.72-67.55-117.84-.13-.64,3.76-.53,5.14-.57,3.72-.12,5.43.8,6.06,3.2,14.72,56.16,51.13,95.21,58.52,101.5.91.77,2.31,3,1.78,6.34C562,816.19,558.6,822,558.3,821.76Z"/></svg>
