<svg id="Layer_1" data-name="Layer 1" xmlns="http://www.w3.org/2000/svg" viewBox="0 0 800 1000"><defs>
  <pattern id="textura-1" patternUnits="userSpaceOnUse" width="100%" height="100%">
      <image href="http://innovateordie.com.ar/svg/texturas/01.jpg" x="-5%" y="-5%" width="105%" height="105%"></image>
  </pattern>
  <pattern id="textura-2" patternUnits="userSpaceOnUse" width="100%" height="100%">
      <image href="http://innovateordie.com.ar/svg/texturas/02.jpg" x="-5%" y="-5%" width="105%" height="105%"></image>
  </pattern>
  <pattern id="textura-3" patternUnits="userSpaceOnUse" width="100%" height="100%">
      <image href="http://innovateordie.com.ar/svg/texturas/03.jpg" x="-5%" y="-5%" width="105%" height="105%"></image>
  </pattern>
  <pattern id="textura-4" patternUnits="userSpaceOnUse" width="100%" height="100%">
      <image href="http://innovateordie.com.ar/svg/texturas/04.jpg" x="-5%" y="-5%" width="105%" height="105%"></image>
  </pattern>
  <pattern id="textura-5" patternUnits="userSpaceOnUse" width="100%" height="100%">
      <image href="http://innovateordie.com.ar/svg/texturas/05.jpg" x="-5%" y="-5%" width="105%" height="105%"></image>
  </pattern>
  <pattern id="textura-6" patternUnits="userSpaceOnUse" width="100%" height="100%">
      <image href="http://innovateordie.com.ar/svg/texturas/06.jpg" x="-5%" y="-5%" width="105%" height="105%"></image>
  </pattern>
  <pattern id="textura-7" patternUnits="userSpaceOnUse" width="100%" height="100%">
      <image href="http://innovateordie.com.ar/svg/texturas/07.jpg" x="-5%" y="-5%" width="105%" height="105%"></image>
  </pattern>
  <pattern id="textura-8" patternUnits="userSpaceOnUse" width="100%" height="100%">
      <image href="http://innovateordie.com.ar/svg/texturas/08.jpg" x="-5%" y="-5%" width="105%" height="105%"></image>
  </pattern>
  <pattern id="textura-9" patternUnits="userSpaceOnUse" width="100%" height="100%">
      <image href="http://innovateordie.com.ar/svg/texturas/09.jpg" x="-5%" y="-5%" width="105%" height="105%"></image>
  </pattern>
  <pattern id="textura-10" patternUnits="userSpaceOnUse" width="100%" height="100%">
      <image href="http://innovateordie.com.ar/svg/texturas/10.jpg" x="-5%" y="-5%" width="105%" height="105%"></image>
  </pattern>
  <pattern id="textura-11" patternUnits="userSpaceOnUse" width="100%" height="100%">
      <image href="http://innovateordie.com.ar/svg/texturas/11.jpg" x="-5%" y="-5%" width="105%" height="105%"></image>
  </pattern>
  <pattern id="textura-12" patternUnits="userSpaceOnUse" width="100%" height="100%">
      <image href="http://innovateordie.com.ar/svg/texturas/12.jpg" x="-5%" y="-5%" width="105%" height="105%"></image>
  </pattern>
  <pattern id="textura-13" patternUnits="userSpaceOnUse" width="100%" height="100%">
      <image href="http://innovateordie.com.ar/svg/texturas/13.jpg" x="-5%" y="-5%" width="105%" height="105%"></image>
  </pattern>
  <pattern id="textura-14" patternUnits="userSpaceOnUse" width="100%" height="100%">
      <image href="http://innovateordie.com.ar/svg/texturas/14.jpg" x="-5%" y="-5%" width="105%" height="105%"></image>
  </pattern>
  <pattern id="textura-15" patternUnits="userSpaceOnUse" width="100%" height="100%">
      <image href="http://innovateordie.com.ar/svg/texturas/15.jpg" x="-5%" y="-5%" width="105%" height="105%"></image>
  </pattern>
  <pattern id="textura-15" patternUnits="userSpaceOnUse" width="100%" height="100%">
      <image href="http://innovateordie.com.ar/svg/texturas/15.jpg" x="-5%" y="-5%" width="105%" height="105%"></image>
  </pattern>
  <pattern id="textura-16" patternUnits="userSpaceOnUse" width="100%" height="100%">
      <image href="http://innovateordie.com.ar/svg/texturas/16.jpg" x="-5%" y="-5%" width="105%" height="105%"></image>
  </pattern>
  <pattern id="textura-17" patternUnits="userSpaceOnUse" width="100%" height="100%">
      <image href="http://innovateordie.com.ar/svg/texturas/17.jpg" x="-5%" y="-5%" width="105%" height="105%"></image>
  </pattern>
  <pattern id="textura-18" patternUnits="userSpaceOnUse" width="100%" height="100%">
      <image href="http://innovateordie.com.ar/svg/texturas/18.jpg" x="-5%" y="-5%" width="105%" height="105%"></image>
  </pattern>
  <pattern id="textura-19" patternUnits="userSpaceOnUse" width="100%" height="100%">
      <image href="http://innovateordie.com.ar/svg/texturas/19.jpg" x="-5%" y="-5%" width="105%" height="105%"></image>
  </pattern>
  <pattern id="textura-20" patternUnits="userSpaceOnUse" width="100%" height="100%">
      <image href="http://innovateordie.com.ar/svg/texturas/20.jpg" x="-5%" y="-5%" width="105%" height="105%"></image>
  </pattern>
  <pattern id="textura-21" patternUnits="userSpaceOnUse" width="100%" height="100%">
      <image href="http://innovateordie.com.ar/svg/texturas/21.jpg" x="-5%" y="-5%" width="105%" height="105%"></image>
  </pattern>
  <pattern id="textura-22" patternUnits="userSpaceOnUse" width="100%" height="100%">
      <image href="http://innovateordie.com.ar/svg/texturas/22.jpg" x="-5%" y="-5%" width="105%" height="105%"></image>
  </pattern>
  <pattern id="textura-23" patternUnits="userSpaceOnUse" width="100%" height="100%">
      <image href="http://innovateordie.com.ar/svg/texturas/23.jpg" x="-5%" y="-5%" width="105%" height="105%"></image>
  </pattern>
  <pattern id="textura-24" patternUnits="userSpaceOnUse" width="100%" height="100%">
      <image href="http://innovateordie.com.ar/svg/texturas/24.jpg" x="-5%" y="-5%" width="105%" height="105%"></image>
  </pattern>
  <pattern id="textura-25" patternUnits="userSpaceOnUse" width="100%" height="100%">
      <image href="http://innovateordie.com.ar/svg/texturas/25.jpg" x="-5%" y="-5%" width="105%" height="105%"></image>
  </pattern>
  <pattern id="textura-26" patternUnits="userSpaceOnUse" width="100%" height="100%">
      <image href="http://innovateordie.com.ar/svg/texturas/26.jpg" x="-5%" y="-5%" width="105%" height="105%"></image>
  </pattern>
  <pattern id="textura-27" patternUnits="userSpaceOnUse" width="100%" height="100%">
      <image href="http://innovateordie.com.ar/svg/texturas/27.jpg" x="-5%" y="-5%" width="105%" height="105%"></image>
  </pattern>
  <pattern id="textura-28" patternUnits="userSpaceOnUse" width="100%" height="100%">
      <image href="http://innovateordie.com.ar/svg/texturas/28.jpg" x="-5%" y="-5%" width="105%" height="105%"></image>
  </pattern>
  <pattern id="textura-29" patternUnits="userSpaceOnUse" width="100%" height="100%">
      <image href="http://innovateordie.com.ar/svg/texturas/29.jpg" x="-5%" y="-5%" width="105%" height="105%"></image>
  </pattern>
  <pattern id="textura-30" patternUnits="userSpaceOnUse" width="100%" height="100%">
      <image href="http://innovateordie.com.ar/svg/texturas/30.jpg" x="-5%" y="-5%" width="105%" height="105%"></image>
  </pattern>
  <pattern id="textura-31" patternUnits="userSpaceOnUse" width="100%" height="100%">
      <image href="http://innovateordie.com.ar/svg/texturas/31.jpg" x="-5%" y="-5%" width="105%" height="105%"></image>
  </pattern>
  <pattern id="textura-32" patternUnits="userSpaceOnUse" width="100%" height="100%">
      <image href="http://innovateordie.com.ar/svg/texturas/32.jpg" x="-5%" y="-5%" width="105%" height="105%"></image>
  </pattern>
  <pattern id="textura-33" patternUnits="userSpaceOnUse" width="100%" height="100%">
      <image href="http://innovateordie.com.ar/svg/texturas/33.jpg" x="-5%" y="-5%" width="105%" height="105%"></image>
  </pattern>
  <pattern id="textura-34" patternUnits="userSpaceOnUse" width="100%" height="100%">
      <image href="http://innovateordie.com.ar/svg/texturas/34.jpg" x="-5%" y="-5%" width="105%" height="105%"></image>
  </pattern>
  <pattern id="textura-35" patternUnits="userSpaceOnUse" width="100%" height="100%">
      <image href="http://innovateordie.com.ar/svg/texturas/35.jpg" x="-5%" y="-5%" width="105%" height="105%"></image>
  </pattern>
  <style>.cls-1,.cls-2{fill:none;stroke:#000;stroke-miterlimit:10;}.cls-2{stroke-dasharray:3 3;}</style></defs><title>Artboard 2 copy 5</title><path class="cls-1 frente-izquierdo" d="M402.5,286.14c-84-1.37-190.29-76.87-219.78-98.13-32.24,12.69-38.74,47.31-39.66,58.28-1.95,23.41,50.16,175.56,51.22,188,2,23.78,6.84,264.36,7.06,462.56,24.21-5.2,54.16-7.14,201.16-9.84Z"/><line class="cls-1" x1="399.5" y1="287" x2="399.5" y2="288"/><line class="cls-2" x1="399.5" y1="291" x2="399.5" y2="885"/><line class="cls-1" x1="399.5" y1="886" x2="399.5" y2="888"/><path class="cls-1 frente-derecho" d="M406.5,286.14c84-1.37,190.25-76.87,219.74-98.13,32.24,12.69,38.72,47.31,39.64,58.28,2,23.41-50.17,175.56-51.23,188-2,23.78-6.8,264.36-7,462.56-24.21-5.2-54.12-7.14-201.12-9.84Z"/><line class="cls-1" x1="409.5" y1="287" x2="409.5" y2="288"/><line class="cls-2" x1="409.5" y1="291" x2="409.5" y2="885"/><line class="cls-1" x1="409.5" y1="886" x2="409.5" y2="888"/><path class="cls-1 manga-izquierda" d="M137.36,262.62s49.26,150.34,52,181.77c3,54.69,9.94,294.11-15.21,453.11H83.64C53.46,666.5,104.67,291.77,137.36,262.62Z"/><polygon class="cls-1 punos" points="83.64 900.5 174.16 900.5 161.13 974.5 94.26 974.5 83.64 900.5"/><path class="cls-1 capucha" d="M404.07,281.22c-55.89,0-177.78-147.11-167.72-192.83-19.55,3.43-53.51,72.63-55,80C176.73,190.35,335.15,281.22,404.07,281.22Z"/><path class="cls-1 manga-derecha" d="M670.79,262.62s-49.27,150.34-52,181.77C617.5,500.05,608.83,738.5,634,897.5h90.53C754.69,666.5,703.48,291.77,670.79,262.62Z"/><polygon class="cls-1 punos" points="724.51 900.5 633.98 900.5 647.01 974.5 713.89 974.5 724.51 900.5"/><path class="cls-1 cintura" d="M402.2,940.8c150.86,1,170.31,1.67,194.75,3.58L605.4,901c-24.43-5.25-46.35-7.18-197.21-9.92-150.86,2.74-181,4.67-205.45,9.92l8.46,43.42C235.64,942.47,251.34,941.79,402.2,940.8Z"/><path class="cls-1 capucha" d="M404.07,281.22c55.9,0,177.79-147.11,167.73-192.83,19.54,3.43,53.51,72.63,55,80C631.42,190.35,473,281.22,404.07,281.22Z"/><path class="cls-1 capucha" d="M404.07,278.59c53.11-3.66,170.9-140.52,164.21-190.2-1.83-13.59-71.46-13.72-164.21-13.72S241.83,74.8,240,88.39C233.32,138.07,353.21,278.59,404.07,278.59Z"/><path class="cls-1 borde" d="M236.23,821.76c7.39-6.28,55.89-61.72,67.55-117.84.14-.64-3.76-.53-5.14-.57-3.71-.12-5.43.8-6.06,3.2-14.72,56.16-51.13,95.21-58.52,101.5-.91.77-2.3,3-1.77,6.34C232.57,816.19,235.93,822,236.23,821.76Z"/><path class="cls-1 borde" d="M564.45,821.76c-7.39-6.28-55.89-61.72-67.55-117.84-.13-.64,3.76-.53,5.14-.57,3.72-.12,5.43.8,6.06,3.2,14.73,56.16,51.13,95.21,58.52,101.5.91.77,2.31,3,1.78,6.34C568.11,816.19,564.75,822,564.45,821.76Z"/></svg>
