<svg id="Layer_1" data-name="Layer 1" xmlns="http://www.w3.org/2000/svg" viewBox="0 0 800 1000"><defs><style>.cls-1{fill:none;stroke:#000;stroke-miterlimit:10;}</style></defs><title>Artboard 9 copy</title><path class="cls-1" d="M408.59,234.5c84.24-2,99.88-88.2,105.5-88.2,32,0,81.3,5.62,109.47,10.76,26.79,4.89,48.27,42.31,49.18,53.28,2,23.41-50.15,175.6-51.2,188-2,23.78-6.86,264.67-7.09,462.88C590,856,559.81,853.5,408.59,851.5h.83c-151.23,2-181.4,4.38-205.87,9.63-.22-198.2-5.06-438.92-7.08-462.7-1.06-12.43-53.16-164.64-51.21-188,.91-11,16.69-48.69,49.18-53.49,45.89-5.85,77.47-10.57,109.47-10.57,5.62,0,21.26,86.18,105.51,88.18Z"/><path class="cls-1" d="M138.17,227.12s49.27,150.59,52,182c5.49,56.11,9.95,294.36-15.2,453.36H84.45C54.27,630.5,105.48,256.27,138.17,227.12Z"/><polygon class="cls-1" points="84.45 865.5 174.98 865.5 161.95 940.5 95.07 940.5 84.45 865.5"/><path class="cls-1" d="M679.83,227.12s-49.27,150.59-52,182c-5.49,56.11-9.94,294.36,15.2,453.36h90.53C763.73,630.5,712.52,256.27,679.83,227.12Z"/><polygon class="cls-1" points="733.55 865.5 643.02 865.5 656.05 940.5 722.93 940.5 733.55 865.5"/><path class="cls-1" d="M308.86,146.57c5.35,0,20.22,82.07,100.14,83.64,79.93-1.57,94.8-83.64,100.14-83.64,0,0-14.35-1.5-17,3.86-10.3,20.76-28.3,65.5-83.14,66.71-54.84-1.21-74.54-45.19-83.13-66.71C323.73,145.07,308.86,146.57,308.86,146.57Z"/><path class="cls-1" d="M614.45,865C590,859.79,559.86,857.77,409,855c-150.86,2.74-181,4.67-205.45,9.92L212,908.36c24.44-1.9,46.13-2.59,197-3.58,150.86,1,167.68.85,192.12,2.75Z"/></svg>