<svg id="Layer_1" data-name="Layer 1" xmlns="http://www.w3.org/2000/svg" viewBox="0 0 800 1000"><defs><style>.cls-1{fill:none;stroke:#000;stroke-miterlimit:10;}</style></defs><title>Artboard 2 copy 9</title><path class="cls-1" d="M131,244.45s49.26,150.43,52,181.85c3,54.7,9.94,294.2-15.21,453.2H77.29C47.12,647.5,98.33,273.6,131,244.45Z"/><polygon class="cls-1" points="77.3 882.5 167.82 882.5 154.79 956.5 87.92 956.5 77.3 882.5"/><path class="cls-1" d="M397.73,262.88C341.84,262.88,220,115.77,230,70.05c-19.55,3.43-53.51,72.63-55,80C170.39,172,328.81,262.88,397.73,262.88Z"/><path class="cls-1" d="M664.45,244.45s-49.27,150.43-52,181.85c-1.28,55.66-10,294.2,15.2,453.2h90.53C748.35,647.5,697.14,273.6,664.45,244.45Z"/><polygon class="cls-1" points="718.17 882.5 627.64 882.5 640.67 956.5 707.55 956.5 718.17 882.5"/><path class="cls-1" d="M402.26,868.58c151.23,2.74,172.34,4.67,196.8,9.92.23-198.2,5.07-438.77,7.09-462.55,1.06-12.43,53.16-164.57,51.21-188-.91-11-7.43-45.76-39.66-58.45-29.49,21.27-135.73,97-220,98h-.16c-84.24-1-190.31-76.71-219.8-98-32.23,12.69-38.75,47.38-39.66,58.36-2,23.4,50.14,175.59,51.2,188,2,23.78,6.86,264.38,7.09,462.58C220.86,873.22,251,871.32,402.26,868.58Z"/><path class="cls-1" d="M395.86,922.46c150.86,1,170.31,1.67,194.75,3.57l8.45-43.41c-24.43-5.25-46.35-7.18-197.21-9.92-150.86,2.74-181,4.67-205.45,9.92L204.86,926C229.3,924.13,245,923.45,395.86,922.46Z"/><path class="cls-1" d="M397.73,262.88c55.9,0,177.79-147.11,167.73-192.83,19.54,3.43,53.51,72.63,55,80C625.08,172,466.66,262.88,397.73,262.88Z"/><path class="cls-1" d="M397.73,260.25c53.11-3.66,170.9-140.52,164.21-190.2-1.83-13.59-71.46-13.72-164.21-13.72s-162.24.13-164.07,13.72C227,119.73,346.87,260.25,397.73,260.25Z"/></svg>