<svg id="Layer_1" data-name="Layer 1" xmlns="http://www.w3.org/2000/svg" viewBox="0 0 800 1000"><defs>
  <pattern id="textura-1" patternUnits="userSpaceOnUse" width="100%" height="100%">
      <image href="http://innovateordie.com.ar/svg/texturas/01.jpg" x="-10%" y="0" width="100%" height="100%"></image>
  </pattern>
  <pattern id="textura-2" patternUnits="userSpaceOnUse" width="100%" height="100%">
      <image href="http://innovateordie.com.ar/svg/texturas/02.jpg" x="-10%" y="0" width="100%" height="100%"></image>
  </pattern>
  <pattern id="textura-3" patternUnits="userSpaceOnUse" width="100%" height="100%">
      <image href="http://innovateordie.com.ar/svg/texturas/03.jpg" x="-10%" y="0" width="100%" height="100%"></image>
  </pattern>
  <pattern id="textura-4" patternUnits="userSpaceOnUse" width="100%" height="100%">
      <image href="http://innovateordie.com.ar/svg/texturas/04.jpg" x="-10%" y="0" width="100%" height="100%"></image>
  </pattern>
  <pattern id="textura-5" patternUnits="userSpaceOnUse" width="100%" height="100%">
      <image href="http://innovateordie.com.ar/svg/texturas/05.jpg" x="-10%" y="0" width="100%" height="100%"></image>
  </pattern>
  <pattern id="textura-6" patternUnits="userSpaceOnUse" width="100%" height="100%">
      <image href="http://innovateordie.com.ar/svg/texturas/06.jpg" x="-10%" y="0" width="100%" height="100%"></image>
  </pattern>
  <pattern id="textura-7" patternUnits="userSpaceOnUse" width="100%" height="100%">
      <image href="http://innovateordie.com.ar/svg/texturas/07.jpg" x="-10%" y="0" width="100%" height="100%"></image>
  </pattern>
  <pattern id="textura-8" patternUnits="userSpaceOnUse" width="100%" height="100%">
      <image href="http://innovateordie.com.ar/svg/texturas/08.jpg" x="-10%" y="0" width="100%" height="100%"></image>
  </pattern>
  <pattern id="textura-9" patternUnits="userSpaceOnUse" width="100%" height="100%">
      <image href="http://innovateordie.com.ar/svg/texturas/09.jpg" x="-10%" y="0" width="100%" height="100%"></image>
  </pattern>
  <pattern id="textura-10" patternUnits="userSpaceOnUse" width="100%" height="100%">
      <image href="http://innovateordie.com.ar/svg/texturas/10.jpg" x="-10%" y="0" width="100%" height="100%"></image>
  </pattern>
  <pattern id="textura-11" patternUnits="userSpaceOnUse" width="100%" height="100%">
      <image href="http://innovateordie.com.ar/svg/texturas/11.jpg" x="-10%" y="0" width="100%" height="100%"></image>
  </pattern>
  <pattern id="textura-12" patternUnits="userSpaceOnUse" width="100%" height="100%">
      <image href="http://innovateordie.com.ar/svg/texturas/12.jpg" x="-10%" y="0" width="100%" height="100%"></image>
  </pattern>
  <pattern id="textura-13" patternUnits="userSpaceOnUse" width="100%" height="100%">
      <image href="http://innovateordie.com.ar/svg/texturas/13.jpg" x="-10%" y="0" width="100%" height="100%"></image>
  </pattern>
  <pattern id="textura-14" patternUnits="userSpaceOnUse" width="100%" height="100%">
      <image href="http://innovateordie.com.ar/svg/texturas/14.jpg" x="-10%" y="0" width="100%" height="100%"></image>
  </pattern>
  <pattern id="textura-15" patternUnits="userSpaceOnUse" width="100%" height="100%">
      <image href="http://innovateordie.com.ar/svg/texturas/15.jpg" x="-10%" y="0" width="100%" height="100%"></image>
  </pattern>
  <pattern id="textura-15" patternUnits="userSpaceOnUse" width="100%" height="100%">
      <image href="http://innovateordie.com.ar/svg/texturas/15.jpg" x="-10%" y="0" width="100%" height="100%"></image>
  </pattern>
  <pattern id="textura-16" patternUnits="userSpaceOnUse" width="100%" height="100%">
      <image href="http://innovateordie.com.ar/svg/texturas/16.jpg" x="-10%" y="0" width="100%" height="100%"></image>
  </pattern>
  <pattern id="textura-17" patternUnits="userSpaceOnUse" width="100%" height="100%">
      <image href="http://innovateordie.com.ar/svg/texturas/17.jpg" x="-10%" y="0" width="100%" height="100%"></image>
  </pattern>
  <pattern id="textura-18" patternUnits="userSpaceOnUse" width="100%" height="100%">
      <image href="http://innovateordie.com.ar/svg/texturas/18.jpg" x="-10%" y="0" width="100%" height="100%"></image>
  </pattern>
  <pattern id="textura-19" patternUnits="userSpaceOnUse" width="100%" height="100%">
      <image href="http://innovateordie.com.ar/svg/texturas/19.jpg" x="-10%" y="0" width="100%" height="100%"></image>
  </pattern>
  <pattern id="textura-20" patternUnits="userSpaceOnUse" width="100%" height="100%">
      <image href="http://innovateordie.com.ar/svg/texturas/20.jpg" x="-10%" y="0" width="100%" height="100%"></image>
  </pattern>
  <pattern id="textura-21" patternUnits="userSpaceOnUse" width="100%" height="100%">
      <image href="http://innovateordie.com.ar/svg/texturas/21.jpg" x="-10%" y="0" width="100%" height="100%"></image>
  </pattern>
  <pattern id="textura-22" patternUnits="userSpaceOnUse" width="100%" height="100%">
      <image href="http://innovateordie.com.ar/svg/texturas/22.jpg" x="-10%" y="0" width="100%" height="100%"></image>
  </pattern>
  <pattern id="textura-23" patternUnits="userSpaceOnUse" width="100%" height="100%">
      <image href="http://innovateordie.com.ar/svg/texturas/23.jpg" x="-10%" y="0" width="100%" height="100%"></image>
  </pattern>
  <pattern id="textura-24" patternUnits="userSpaceOnUse" width="100%" height="100%">
      <image href="http://innovateordie.com.ar/svg/texturas/24.jpg" x="-10%" y="0" width="100%" height="100%"></image>
  </pattern>
  <pattern id="textura-25" patternUnits="userSpaceOnUse" width="100%" height="100%">
      <image href="http://innovateordie.com.ar/svg/texturas/25.jpg" x="-10%" y="0" width="100%" height="100%"></image>
  </pattern>
  <pattern id="textura-26" patternUnits="userSpaceOnUse" width="100%" height="100%">
      <image href="http://innovateordie.com.ar/svg/texturas/26.jpg" x="-10%" y="0" width="100%" height="100%"></image>
  </pattern>
  <pattern id="textura-27" patternUnits="userSpaceOnUse" width="100%" height="100%">
      <image href="http://innovateordie.com.ar/svg/texturas/27.jpg" x="-10%" y="0" width="100%" height="100%"></image>
  </pattern>
  <pattern id="textura-28" patternUnits="userSpaceOnUse" width="100%" height="100%">
      <image href="http://innovateordie.com.ar/svg/texturas/28.jpg" x="-10%" y="0" width="100%" height="100%"></image>
  </pattern>
  <pattern id="textura-29" patternUnits="userSpaceOnUse" width="100%" height="100%">
      <image href="http://innovateordie.com.ar/svg/texturas/29.jpg" x="-10%" y="0" width="100%" height="100%"></image>
  </pattern>
  <pattern id="textura-30" patternUnits="userSpaceOnUse" width="100%" height="100%">
      <image href="http://innovateordie.com.ar/svg/texturas/30.jpg" x="-10%" y="0" width="100%" height="100%"></image>
  </pattern>
  <pattern id="textura-31" patternUnits="userSpaceOnUse" width="100%" height="100%">
      <image href="http://innovateordie.com.ar/svg/texturas/31.jpg" x="-10%" y="0" width="100%" height="100%"></image>
  </pattern>
  <pattern id="textura-32" patternUnits="userSpaceOnUse" width="100%" height="100%">
      <image href="http://innovateordie.com.ar/svg/texturas/32.jpg" x="-10%" y="0" width="100%" height="100%"></image>
  </pattern>
  <pattern id="textura-33" patternUnits="userSpaceOnUse" width="100%" height="100%">
      <image href="http://innovateordie.com.ar/svg/texturas/33.jpg" x="-10%" y="0" width="100%" height="100%"></image>
  </pattern>
  <pattern id="textura-34" patternUnits="userSpaceOnUse" width="100%" height="100%">
      <image href="http://innovateordie.com.ar/svg/texturas/34.jpg" x="-10%" y="0" width="100%" height="100%"></image>
  </pattern>
  <pattern id="textura-35" patternUnits="userSpaceOnUse" width="100%" height="100%">
      <image href="http://innovateordie.com.ar/svg/texturas/35.jpg" x="-10%" y="0" width="100%" height="100%"></image>
  </pattern><style>.cls-1,.cls-2{fill:none;stroke:#000;stroke-miterlimit:10;}.cls-2{stroke-dasharray:3 3;}</style></defs><title>Artboard 2 copy 10</title><path class="cls-1 frente-izquierdo" d="M402.5,267.79c-84-1.37-190.45-76.86-219.94-98.12C150.33,182.36,143.74,217,142.83,228c-2,23.41,50.11,175.56,51.17,188,2,23.78,7,264.36,7.21,462.56,24.2-5.21,54.29-7.14,201.29-9.84Z"/><line class="cls-1" x1="399.5" y1="268" x2="399.5" y2="270"/><line class="cls-2" x1="399.5" y1="273" x2="399.5" y2="867"/><line class="cls-1" x1="399.5" y1="868" x2="399.5" y2="869"/><path class="cls-1 frente-derecho" d="M406.5,267.79c84-1.37,190.1-76.86,219.59-98.12C658.32,182.36,664.72,217,665.64,228c2,23.41-50.2,175.56-51.26,188-2,23.78-6.67,264.36-6.9,462.56-24.2-5.21-54-7.14-201-9.84Z"/><line class="cls-1" x1="408.5" y1="268" x2="408.5" y2="270"/><line class="cls-2" x1="408.5" y1="273" x2="408.5" y2="867"/><line class="cls-1" x1="408.5" y1="868" x2="408.5" y2="869"/><path class="cls-1 manga-izquierda" d="M137,244.45s49.27,150.43,52,181.85c3,54.7,9.95,294.2-15.2,453.2H83.32C53.14,647.5,104.35,273.6,137,244.45Z"/><polygon class="cls-1 punos" points="83.32 882.5 173.85 882.5 160.82 956.5 93.94 956.5 83.32 882.5"/><path class="cls-1 capucha" d="M403.76,262.88C347.86,262.88,226,115.77,236,70.05c-19.55,3.43-53.51,72.63-55,80C176.41,172,334.83,262.88,403.76,262.88Z"/><path class="cls-1 manga-derecha" d="M670.47,244.45s-49.26,150.43-52,181.85c-1.27,55.66-9.94,294.2,15.21,453.2H724.2C754.37,647.5,703.16,273.6,670.47,244.45Z"/><polygon class="punos cls-1" points="724.2 882.5 633.67 882.5 646.7 956.5 713.57 956.5 724.2 882.5"/><path class="cls-1 cintura" d="M401.88,922.46c150.87,1,170.31,1.67,194.75,3.57l8.46-43.41c-24.44-5.25-46.36-7.18-197.22-9.92-150.86,2.74-181,4.67-205.44,9.92L210.88,926C235.32,924.13,251,923.45,401.88,922.46Z"/><path class="cls-1 capucha" d="M403.76,262.88c55.89,0,177.78-147.11,167.72-192.83,19.55,3.43,53.51,72.63,55,80C631.1,172,472.68,262.88,403.76,262.88Z"/><path class="cls-1 capucha" d="M403.76,260.25C456.87,256.59,574.65,119.73,568,70.05c-1.83-13.59-71.47-13.72-164.21-13.72s-162.24.13-164.07,13.72C233,119.73,352.89,260.25,403.76,260.25Z"/></svg>
