<svg id="Layer_1" data-name="Layer 1" xmlns="http://www.w3.org/2000/svg" viewBox="0 0 800 1000"><defs><style>.cls-1{fill:none;stroke:#000;stroke-miterlimit:10;}</style></defs><title>Artboard 2 copy 8</title><path class="cls-1" d="M131.21,262.62s49.26,150.34,52,181.77c3,54.69,9.94,294.11-15.21,453.11H77.48C47.31,666.5,98.52,291.77,131.21,262.62Z"/><polygon class="cls-1" points="77.48 900.5 168.01 900.5 154.98 974.5 88.11 974.5 77.48 900.5"/><path class="cls-1" d="M664.63,262.62s-49.26,150.34-52,181.77c-1.28,55.66-10,294.11,15.2,453.11h90.53C748.54,666.5,697.33,291.77,664.63,262.62Z"/><polygon class="cls-1" points="718.36 900.5 627.83 900.5 640.86 974.5 707.74 974.5 718.36 900.5"/><path class="cls-1" d="M402.45,886.92c151.23,2.74,172.34,4.67,196.8,9.93.23-198.21,5.07-438.78,7.09-462.55,1.06-12.44,53.16-164.58,51.21-188-.92-11-7.43-45.44-39.66-58.12-32.57,32.18-137.73,124.3-222,126.3h-.16C311.52,312.5,200,214,178,188.2c-32.24,12.68-38.75,47.21-39.67,58.18-1.95,23.41,50.15,175.51,51.21,188,2,23.77,6.86,264.33,7.09,462.53C221.05,891.6,251.23,889.66,402.45,886.92Z"/><path class="cls-1" d="M396.05,940.8c150.86,1,170.31,1.67,194.74,3.58L599.25,901C574.82,895.71,552.9,893.78,402,891c-150.86,2.74-181,4.67-205.45,9.92l8.46,43.42C229.49,942.47,245.19,941.79,396.05,940.8Z"/><path class="cls-1" d="M371.72,306.44c-76-15.42-200.67-118.38-196.57-138,1.54-7.38,28.6-68.9,55-80s75-13.72,167.72-13.72,143.54,4.62,167.73,13.72,53.51,72.63,55,80C624.85,188.33,492.6,293.1,417,307a120.44,120.44,0,0,1-22.68,2.46C385.33,309.5,371.72,306.44,371.72,306.44Z"/></svg>