<?xml version="1.0" encoding="utf-8"?>
<!-- Generator: Adobe Illustrator 23.0.1, SVG Export Plug-In . SVG Version: 6.00 Build 0)  -->
<svg version="1.1" id="Layer_1" xmlns="http://www.w3.org/2000/svg" xmlns:xlink="http://www.w3.org/1999/xlink" x="0px" y="0px"
	 viewBox="0 0 800 1000" style="enable-background:new 0 0 800 1000;" xml:space="preserve">
<style type="text/css">
	.st0{fill:none;stroke:#000000;stroke-miterlimit:10;}
</style>
<title>Artboard 2 copy 8</title>
<path class="st0" d="M371.7,306.4c-76-15.4-200.7-118.4-196.6-138c1.5-7.4,28.6-68.9,55-80s75-13.7,167.7-13.7s143.5,4.6,167.7,13.7
	s53.5,72.6,55,80c4.2,19.9-128,124.7-203.6,138.6c-7.5,1.5-15.1,2.4-22.7,2.5C385.3,309.5,371.7,306.4,371.7,306.4z"/>
<g>
	<g>
		<polygon class="st0" points="79.1,909.3 169.6,909.3 156.6,984.3 89.7,984.3 		"/>
		<path class="st0" d="M309.5,286.9L184.8,453c5.5,56.1,9.9,294.3-15.2,453.3H79.1c-30.2-232,41.5-634.3,55.5-653.7
			c0,0,24-50,56.5-54.8C200.2,210.6,258.1,262.1,309.5,286.9z"/>
	</g>
	<g>
		<polygon class="st0" points="714.9,983.4 648.1,983.4 635,908.4 725.6,908.4 		"/>
		<path class="st0" d="M488.6,282.1l131.3,170c-5.5,56.1-10,294.3,15.2,453.3h90.5c30.2-232-41.5-634.3-55.5-653.7
			c0,0-29.1-52.9-61.6-57.7C584.4,219.2,533.4,260.8,488.6,282.1z"/>
	</g>
	<path class="st0" d="M402.9,895.3c151.2,2,180.4,4.5,204.9,9.8c0.2-198.2,5.1-429.8,7.1-453.6L484.7,283
		c-17.9,9.2-48.2,29.5-86.1,30.6l0,0c-34,1-66.5-15.5-85-25.4L191.1,451.5c2,23.8,6.9,255.4,7.1,453.6
		C222.7,899.9,251.7,897.3,402.9,895.3z"/>
</g>
<path class="st0" d="M400.4,947.6c150.9,1,170.3,1.7,194.8,3.6l8.5-43.4c-24.4-5.2-46.3-7.2-197.2-9.9c-150.9,2.7-181,4.7-205.4,9.9
	l8.5,43.4C233.8,949.2,249.5,948.6,400.4,947.6z"/>
</svg>
