<svg id="Layer_2" data-name="Layer 2" xmlns="http://www.w3.org/2000/svg" viewBox="0 0 800 1000"><defs>
  <pattern id="textura-1" patternUnits="userSpaceOnUse" width="100%" height="100%">
        <image href="http://innovateordie.com.ar/svg/texturas/01.jpg" x="-5%" y="-5%" width="105%" height="105%"></image>
    </pattern>
    <pattern id="textura-2" patternUnits="userSpaceOnUse" width="100%" height="100%">
        <image href="http://innovateordie.com.ar/svg/texturas/02.jpg" x="-5%" y="-5%" width="105%" height="105%"></image>
    </pattern>
    <pattern id="textura-3" patternUnits="userSpaceOnUse" width="100%" height="100%">
        <image href="http://innovateordie.com.ar/svg/texturas/03.jpg" x="-5%" y="-5%" width="105%" height="105%"></image>
    </pattern>
    <pattern id="textura-4" patternUnits="userSpaceOnUse" width="100%" height="100%">
        <image href="http://innovateordie.com.ar/svg/texturas/04.jpg" x="-5%" y="-5%" width="105%" height="105%"></image>
    </pattern>
    <pattern id="textura-5" patternUnits="userSpaceOnUse" width="100%" height="100%">
        <image href="http://innovateordie.com.ar/svg/texturas/05.jpg" x="-5%" y="-5%" width="105%" height="105%"></image>
    </pattern>
    <pattern id="textura-6" patternUnits="userSpaceOnUse" width="100%" height="100%">
        <image href="http://innovateordie.com.ar/svg/texturas/06.jpg" x="-5%" y="-5%" width="105%" height="105%"></image>
    </pattern>
    <pattern id="textura-7" patternUnits="userSpaceOnUse" width="100%" height="100%">
        <image href="http://innovateordie.com.ar/svg/texturas/07.jpg" x="-5%" y="-5%" width="105%" height="105%"></image>
    </pattern>
    <pattern id="textura-8" patternUnits="userSpaceOnUse" width="100%" height="100%">
        <image href="http://innovateordie.com.ar/svg/texturas/08.jpg" x="-5%" y="-5%" width="105%" height="105%"></image>
    </pattern>
    <pattern id="textura-9" patternUnits="userSpaceOnUse" width="100%" height="100%">
        <image href="http://innovateordie.com.ar/svg/texturas/09.jpg" x="-5%" y="-5%" width="105%" height="105%"></image>
    </pattern>
    <pattern id="textura-10" patternUnits="userSpaceOnUse" width="100%" height="100%">
        <image href="http://innovateordie.com.ar/svg/texturas/10.jpg" x="-5%" y="-5%" width="105%" height="105%"></image>
    </pattern>
    <pattern id="textura-11" patternUnits="userSpaceOnUse" width="100%" height="100%">
        <image href="http://innovateordie.com.ar/svg/texturas/11.jpg" x="-5%" y="-5%" width="105%" height="105%"></image>
    </pattern>
    <pattern id="textura-12" patternUnits="userSpaceOnUse" width="100%" height="100%">
        <image href="http://innovateordie.com.ar/svg/texturas/12.jpg" x="-5%" y="-5%" width="105%" height="105%"></image>
    </pattern>
    <pattern id="textura-13" patternUnits="userSpaceOnUse" width="100%" height="100%">
        <image href="http://innovateordie.com.ar/svg/texturas/13.jpg" x="-5%" y="-5%" width="105%" height="105%"></image>
    </pattern>
    <pattern id="textura-14" patternUnits="userSpaceOnUse" width="100%" height="100%">
        <image href="http://innovateordie.com.ar/svg/texturas/14.jpg" x="-5%" y="-5%" width="105%" height="105%"></image>
    </pattern>
    <pattern id="textura-15" patternUnits="userSpaceOnUse" width="100%" height="100%">
        <image href="http://innovateordie.com.ar/svg/texturas/15.jpg" x="-5%" y="-5%" width="105%" height="105%"></image>
    </pattern>
    <pattern id="textura-15" patternUnits="userSpaceOnUse" width="100%" height="100%">
        <image href="http://innovateordie.com.ar/svg/texturas/15.jpg" x="-5%" y="-5%" width="105%" height="105%"></image>
    </pattern>
    <pattern id="textura-16" patternUnits="userSpaceOnUse" width="100%" height="100%">
        <image href="http://innovateordie.com.ar/svg/texturas/16.jpg" x="-5%" y="-5%" width="105%" height="105%"></image>
    </pattern>
    <pattern id="textura-17" patternUnits="userSpaceOnUse" width="100%" height="100%">
        <image href="http://innovateordie.com.ar/svg/texturas/17.jpg" x="-5%" y="-5%" width="105%" height="105%"></image>
    </pattern>
    <pattern id="textura-18" patternUnits="userSpaceOnUse" width="100%" height="100%">
        <image href="http://innovateordie.com.ar/svg/texturas/18.jpg" x="-5%" y="-5%" width="105%" height="105%"></image>
    </pattern>
    <pattern id="textura-19" patternUnits="userSpaceOnUse" width="100%" height="100%">
        <image href="http://innovateordie.com.ar/svg/texturas/19.jpg" x="-5%" y="-5%" width="105%" height="105%"></image>
    </pattern>
    <pattern id="textura-20" patternUnits="userSpaceOnUse" width="100%" height="100%">
        <image href="http://innovateordie.com.ar/svg/texturas/20.jpg" x="-5%" y="-5%" width="105%" height="105%"></image>
    </pattern>
    <pattern id="textura-21" patternUnits="userSpaceOnUse" width="100%" height="100%">
        <image href="http://innovateordie.com.ar/svg/texturas/21.jpg" x="-5%" y="-5%" width="105%" height="105%"></image>
    </pattern>
    <pattern id="textura-22" patternUnits="userSpaceOnUse" width="100%" height="100%">
        <image href="http://innovateordie.com.ar/svg/texturas/22.jpg" x="-5%" y="-5%" width="105%" height="105%"></image>
    </pattern>
    <pattern id="textura-23" patternUnits="userSpaceOnUse" width="100%" height="100%">
        <image href="http://innovateordie.com.ar/svg/texturas/23.jpg" x="-5%" y="-5%" width="105%" height="105%"></image>
    </pattern>
    <pattern id="textura-24" patternUnits="userSpaceOnUse" width="100%" height="100%">
        <image href="http://innovateordie.com.ar/svg/texturas/24.jpg" x="-5%" y="-5%" width="105%" height="105%"></image>
    </pattern>
    <pattern id="textura-25" patternUnits="userSpaceOnUse" width="100%" height="100%">
        <image href="http://innovateordie.com.ar/svg/texturas/25.jpg" x="-5%" y="-5%" width="105%" height="105%"></image>
    </pattern>
    <pattern id="textura-26" patternUnits="userSpaceOnUse" width="100%" height="100%">
        <image href="http://innovateordie.com.ar/svg/texturas/26.jpg" x="-5%" y="-5%" width="105%" height="105%"></image>
    </pattern>
    <pattern id="textura-27" patternUnits="userSpaceOnUse" width="100%" height="100%">
        <image href="http://innovateordie.com.ar/svg/texturas/27.jpg" x="-5%" y="-5%" width="105%" height="105%"></image>
    </pattern>
    <pattern id="textura-28" patternUnits="userSpaceOnUse" width="100%" height="100%">
        <image href="http://innovateordie.com.ar/svg/texturas/28.jpg" x="-5%" y="-5%" width="105%" height="105%"></image>
    </pattern>
    <pattern id="textura-29" patternUnits="userSpaceOnUse" width="100%" height="100%">
        <image href="http://innovateordie.com.ar/svg/texturas/29.jpg" x="-5%" y="-5%" width="105%" height="105%"></image>
    </pattern>
    <pattern id="textura-30" patternUnits="userSpaceOnUse" width="100%" height="100%">
        <image href="http://innovateordie.com.ar/svg/texturas/30.jpg" x="-5%" y="-5%" width="105%" height="105%"></image>
    </pattern>
    <pattern id="textura-31" patternUnits="userSpaceOnUse" width="100%" height="100%">
        <image href="http://innovateordie.com.ar/svg/texturas/31.jpg" x="-5%" y="-5%" width="105%" height="105%"></image>
    </pattern>
    <pattern id="textura-32" patternUnits="userSpaceOnUse" width="100%" height="100%">
        <image href="http://innovateordie.com.ar/svg/texturas/32.jpg" x="-5%" y="-5%" width="105%" height="105%"></image>
    </pattern>
    <pattern id="textura-33" patternUnits="userSpaceOnUse" width="100%" height="100%">
        <image href="http://innovateordie.com.ar/svg/texturas/33.jpg" x="-5%" y="-5%" width="105%" height="105%"></image>
    </pattern>
    <pattern id="textura-34" patternUnits="userSpaceOnUse" width="100%" height="100%">
        <image href="http://innovateordie.com.ar/svg/texturas/34.jpg" x="-5%" y="-5%" width="105%" height="105%"></image>
    </pattern>
    <pattern id="textura-35" patternUnits="userSpaceOnUse" width="100%" height="100%">
        <image href="http://innovateordie.com.ar/svg/texturas/35.jpg" x="-5%" y="-5%" width="105%" height="105%"></image>
    </pattern><style>.cls-1,.cls-2{fill:none;stroke:#000;}.cls-1{stroke-miterlimit:10;}.cls-2{stroke-linecap:round;stroke-linejoin:round;}</style></defs><title>Artboard 2 copy 7</title><path class="cls-1 espalda" d="M408.59,171.5c84.24-1,99.88-43.7,105.5-43.7,32,0,81.3,5.87,109.47,11,26.79,4.89,48.27,42.43,49.18,53.4,2,23.41-50.15,175.66-51.2,188.1-2,23.77-6.86,264.19-7.09,462.4-24.46-5.26-54.64-7.22-205.86-10.22h.83c-151.23,3-181.4,4.88-205.87,10.14-.22-198.21-5.06-438.68-7.08-462.45-1.06-12.43-53.16-164.52-51.21-187.93.91-11,16.69-48.62,49.18-53.43,45.89-5.85,77.47-11,109.47-11,5.62,0,21.26,42.71,105.51,43.71Z"/><path class="cls-1" d="M138.17,208.62s49.27,150.34,52,181.77c5.49,56.12,9.95,294.11-15.2,453.11H84.45C54.27,612.5,105.48,237.77,138.17,208.62Z"/><polygon class="punos cls-1" points="84.45 847.5 174.98 847.5 161.95 921.5 95.07 921.5 84.45 847.5"/><path class="cls-1 manga-derecha" d="M679.83,208.62s-49.27,150.34-52,181.77c-5.49,56.12-9.94,294.11,15.2,453.11h90.53C763.73,612.5,712.52,237.77,679.83,208.62Z"/><polygon class="punos cls-1" points="733.55 847.5 643.02 847.5 656.05 921.5 722.93 921.5 733.55 847.5"/><path class="cls-2 cuello" d="M308.64,128.58c5.66.34,20.44,36.51,100.36,38.09,79.93-1.58,94.8-38.09,100.14-38.09,0,0-12.36.09-17,3.86-15.68,12.71-28.3,25-83.14,26.23-54.84-1.22-72.17-15.24-83.13-26.23C321.79,128.35,308.64,128.58,308.64,128.58Z"/><path class="cintura cls-1" d="M614.45,847C590,841.79,559.86,839.77,409,837c-150.86,2.73-181,4.67-205.45,9.92L212,890.37c24.44-1.9,46.13-2.6,197-3.59,150.86,1,167.68.86,192.12,2.76Z"/></svg>
