<?xml version="1.0" encoding="utf-8"?>
<!-- Generator: Adobe Illustrator 23.0.1, SVG Export Plug-In . SVG Version: 6.00 Build 0)  -->
<svg version="1.1" id="Layer_1" xmlns="http://www.w3.org/2000/svg" xmlns:xlink="http://www.w3.org/1999/xlink" x="0px" y="0px"
	 viewBox="0 0 800 1000" style="enable-background:new 0 0 800 1000;" xml:space="preserve">
     <defs>
         <pattern id="textura-1" patternUnits="userSpaceOnUse" width="100%" height="100%">
               <image href="http://innovateordie.com.ar/svg/texturas/01.jpg" x="-5%" y="-5%" width="105%" height="105%"></image>
           </pattern>
           <pattern id="textura-2" patternUnits="userSpaceOnUse" width="100%" height="100%">
               <image href="http://innovateordie.com.ar/svg/texturas/02.jpg" x="-5%" y="-5%" width="105%" height="105%"></image>
           </pattern>
           <pattern id="textura-3" patternUnits="userSpaceOnUse" width="100%" height="100%">
               <image href="http://innovateordie.com.ar/svg/texturas/03.jpg" x="-5%" y="-5%" width="105%" height="105%"></image>
           </pattern>
           <pattern id="textura-4" patternUnits="userSpaceOnUse" width="100%" height="100%">
               <image href="http://innovateordie.com.ar/svg/texturas/04.jpg" x="-5%" y="-5%" width="105%" height="105%"></image>
           </pattern>
           <pattern id="textura-5" patternUnits="userSpaceOnUse" width="100%" height="100%">
               <image href="http://innovateordie.com.ar/svg/texturas/05.jpg" x="-5%" y="-5%" width="105%" height="105%"></image>
           </pattern>
           <pattern id="textura-6" patternUnits="userSpaceOnUse" width="100%" height="100%">
               <image href="http://innovateordie.com.ar/svg/texturas/06.jpg" x="-5%" y="-5%" width="105%" height="105%"></image>
           </pattern>
           <pattern id="textura-7" patternUnits="userSpaceOnUse" width="100%" height="100%">
               <image href="http://innovateordie.com.ar/svg/texturas/07.jpg" x="-5%" y="-5%" width="105%" height="105%"></image>
           </pattern>
           <pattern id="textura-8" patternUnits="userSpaceOnUse" width="100%" height="100%">
               <image href="http://innovateordie.com.ar/svg/texturas/08.jpg" x="-5%" y="-5%" width="105%" height="105%"></image>
           </pattern>
           <pattern id="textura-9" patternUnits="userSpaceOnUse" width="100%" height="100%">
               <image href="http://innovateordie.com.ar/svg/texturas/09.jpg" x="-5%" y="-5%" width="105%" height="105%"></image>
           </pattern>
           <pattern id="textura-10" patternUnits="userSpaceOnUse" width="100%" height="100%">
               <image href="http://innovateordie.com.ar/svg/texturas/10.jpg" x="-5%" y="-5%" width="105%" height="105%"></image>
           </pattern>
           <pattern id="textura-11" patternUnits="userSpaceOnUse" width="100%" height="100%">
               <image href="http://innovateordie.com.ar/svg/texturas/11.jpg" x="-5%" y="-5%" width="105%" height="105%"></image>
           </pattern>
           <pattern id="textura-12" patternUnits="userSpaceOnUse" width="100%" height="100%">
               <image href="http://innovateordie.com.ar/svg/texturas/12.jpg" x="-5%" y="-5%" width="105%" height="105%"></image>
           </pattern>
           <pattern id="textura-13" patternUnits="userSpaceOnUse" width="100%" height="100%">
               <image href="http://innovateordie.com.ar/svg/texturas/13.jpg" x="-5%" y="-5%" width="105%" height="105%"></image>
           </pattern>
           <pattern id="textura-14" patternUnits="userSpaceOnUse" width="100%" height="100%">
               <image href="http://innovateordie.com.ar/svg/texturas/14.jpg" x="-5%" y="-5%" width="105%" height="105%"></image>
           </pattern>
           <pattern id="textura-15" patternUnits="userSpaceOnUse" width="100%" height="100%">
               <image href="http://innovateordie.com.ar/svg/texturas/15.jpg" x="-5%" y="-5%" width="105%" height="105%"></image>
           </pattern>
           <pattern id="textura-15" patternUnits="userSpaceOnUse" width="100%" height="100%">
               <image href="http://innovateordie.com.ar/svg/texturas/15.jpg" x="-5%" y="-5%" width="105%" height="105%"></image>
           </pattern>
           <pattern id="textura-16" patternUnits="userSpaceOnUse" width="100%" height="100%">
               <image href="http://innovateordie.com.ar/svg/texturas/16.jpg" x="-5%" y="-5%" width="105%" height="105%"></image>
           </pattern>
           <pattern id="textura-17" patternUnits="userSpaceOnUse" width="100%" height="100%">
               <image href="http://innovateordie.com.ar/svg/texturas/17.jpg" x="-5%" y="-5%" width="105%" height="105%"></image>
           </pattern>
           <pattern id="textura-18" patternUnits="userSpaceOnUse" width="100%" height="100%">
               <image href="http://innovateordie.com.ar/svg/texturas/18.jpg" x="-5%" y="-5%" width="105%" height="105%"></image>
           </pattern>
           <pattern id="textura-19" patternUnits="userSpaceOnUse" width="100%" height="100%">
               <image href="http://innovateordie.com.ar/svg/texturas/19.jpg" x="-5%" y="-5%" width="105%" height="105%"></image>
           </pattern>
           <pattern id="textura-20" patternUnits="userSpaceOnUse" width="100%" height="100%">
               <image href="http://innovateordie.com.ar/svg/texturas/20.jpg" x="-5%" y="-5%" width="105%" height="105%"></image>
           </pattern>
           <pattern id="textura-21" patternUnits="userSpaceOnUse" width="100%" height="100%">
               <image href="http://innovateordie.com.ar/svg/texturas/21.jpg" x="-5%" y="-5%" width="105%" height="105%"></image>
           </pattern>
           <pattern id="textura-22" patternUnits="userSpaceOnUse" width="100%" height="100%">
               <image href="http://innovateordie.com.ar/svg/texturas/22.jpg" x="-5%" y="-5%" width="105%" height="105%"></image>
           </pattern>
           <pattern id="textura-23" patternUnits="userSpaceOnUse" width="100%" height="100%">
               <image href="http://innovateordie.com.ar/svg/texturas/23.jpg" x="-5%" y="-5%" width="105%" height="105%"></image>
           </pattern>
           <pattern id="textura-24" patternUnits="userSpaceOnUse" width="100%" height="100%">
               <image href="http://innovateordie.com.ar/svg/texturas/24.jpg" x="-5%" y="-5%" width="105%" height="105%"></image>
           </pattern>
           <pattern id="textura-25" patternUnits="userSpaceOnUse" width="100%" height="100%">
               <image href="http://innovateordie.com.ar/svg/texturas/25.jpg" x="-5%" y="-5%" width="105%" height="105%"></image>
           </pattern>
           <pattern id="textura-26" patternUnits="userSpaceOnUse" width="100%" height="100%">
               <image href="http://innovateordie.com.ar/svg/texturas/26.jpg" x="-5%" y="-5%" width="105%" height="105%"></image>
           </pattern>
           <pattern id="textura-27" patternUnits="userSpaceOnUse" width="100%" height="100%">
               <image href="http://innovateordie.com.ar/svg/texturas/27.jpg" x="-5%" y="-5%" width="105%" height="105%"></image>
           </pattern>
           <pattern id="textura-28" patternUnits="userSpaceOnUse" width="100%" height="100%">
               <image href="http://innovateordie.com.ar/svg/texturas/28.jpg" x="-5%" y="-5%" width="105%" height="105%"></image>
           </pattern>
           <pattern id="textura-29" patternUnits="userSpaceOnUse" width="100%" height="100%">
               <image href="http://innovateordie.com.ar/svg/texturas/29.jpg" x="-5%" y="-5%" width="105%" height="105%"></image>
           </pattern>
           <pattern id="textura-30" patternUnits="userSpaceOnUse" width="100%" height="100%">
               <image href="http://innovateordie.com.ar/svg/texturas/30.jpg" x="-5%" y="-5%" width="105%" height="105%"></image>
           </pattern>
           <pattern id="textura-31" patternUnits="userSpaceOnUse" width="100%" height="100%">
               <image href="http://innovateordie.com.ar/svg/texturas/31.jpg" x="-5%" y="-5%" width="105%" height="105%"></image>
           </pattern>
           <pattern id="textura-32" patternUnits="userSpaceOnUse" width="100%" height="100%">
               <image href="http://innovateordie.com.ar/svg/texturas/32.jpg" x="-5%" y="-5%" width="105%" height="105%"></image>
           </pattern>
           <pattern id="textura-33" patternUnits="userSpaceOnUse" width="100%" height="100%">
               <image href="http://innovateordie.com.ar/svg/texturas/33.jpg" x="-5%" y="-5%" width="105%" height="105%"></image>
           </pattern>
           <pattern id="textura-34" patternUnits="userSpaceOnUse" width="100%" height="100%">
               <image href="http://innovateordie.com.ar/svg/texturas/34.jpg" x="-5%" y="-5%" width="105%" height="105%"></image>
           </pattern>
           <pattern id="textura-35" patternUnits="userSpaceOnUse" width="100%" height="100%">
               <image href="http://innovateordie.com.ar/svg/texturas/35.jpg" x="-5%" y="-5%" width="105%" height="105%"></image>
           </pattern>
<style type="text/css">
	.st0{fill:none;stroke:#000000;stroke-linecap:round;stroke-linejoin:round;}
	.st1{fill:none;stroke:#000000;stroke-miterlimit:10;}
</style>
</defs>
<title>Artboard 2 copy 7</title>
<path class="st0 cuello" d="M308.6,128.6c5.7,0.3,20.4,36.5,100.4,38.1c79.9-1.6,94.8-38.1,100.1-38.1c0,0-12.4,0.1-17,3.9
	c-15.7,12.7-28.3,25-83.1,26.2c-54.8-1.2-72.2-15.2-83.1-26.2C321.8,128.4,308.6,128.6,308.6,128.6z"/>
<path class="st1 cintura" d="M614.5,847c-24.5-5.2-54.6-7.2-205.5-10c-150.9,2.7-181,4.7-205.4,9.9l8.4,43.5c24.4-1.9,46.1-2.6,197-3.6
	c150.9,1,167.7,0.9,192.1,2.8L614.5,847z"/>
<g>
	<path class="st1 espalda" d="M408.3,834.1c151.2,2,180.4,4.5,204.9,9.8c0.2-198.2,5.1-429.8,7.1-453.6L461,162.1c-14.7,6.3-26.5,8-52.8,8.6
		l0,0c-26.3-0.6-30.8-1.4-47.8-5.7L196.5,390.3c2,23.8,6.9,255.4,7.1,453.6C228,838.6,257.1,836.1,408.3,834.1z"/>
	<g>
		<polygon class="st1 punos" points="84.4,848.1 175,848.1 161.9,923.1 95.1,923.1 		"/>
		<path class="st1 manga-izquierda" d="M356.3,163.6L190.2,391.8c5.5,56.1,9.9,294.3-15.2,453.3H84.4c-30.2-232,41.5-634.3,55.5-653.7
			c0,0,22-46.8,54.5-51.6c45.9-5.9,77.5-10.7,109.5-10.7C307.6,129.1,317.4,152.8,356.3,163.6z"/>
	</g>
	<g>
		<polygon class="st1 punos" points="721.6,923.1 654.8,923.1 641.7,848.1 732.3,848.1 		"/>
		<path class="st1 manga-derecha" d="M464.1,160.8l162.4,230.9c-5.5,56.1-10,294.3,15.2,453.3h90.5c30.2-232-41.5-634.3-55.5-653.7
			c0,0-22-46.8-54.5-51.6c-45.9-5.9-77.5-10.7-109.5-10.7C509.1,129.1,496.1,153.8,464.1,160.8z"/>
	</g>
</g>
</svg>
